<?xml version="1.0" encoding="utf-8"?>
<!-- Generator: Adobe Illustrator 19.2.1, SVG Export Plug-In . SVG Version: 6.00 Build 0)  -->
<svg version="1.1" id="Layer_1" xmlns="http://www.w3.org/2000/svg" xmlns:xlink="http://www.w3.org/1999/xlink" x="0px" y="0px"
	 viewBox="0 0 192 51.2" style="enable-background:new 0 0 192 51.2;" xml:space="preserve">
<g>
	<path d="M29.1,38.7l-0.2,2.5h-3.7c-1,0-4.6,0.1-6.7,0.2L18.3,39l2.7-0.6c-0.2-1.2-0.5-2.4-0.7-3.4l-0.7-2.2h-8.1l-1.1,3.5
		c-0.2,0.6-0.4,1.4-0.4,2.1l2.6,0.4l-0.2,2.5h-4c-1,0-3.7,0.1-5.5,0.2L2.8,39L5,38.6c0.6-1.2,1.2-2.5,1.6-3.7L14,13.2l3.2-0.5
		l8.1,23.1c0.4,0.9,0.7,1.9,1.2,2.6L29.1,38.7z M18.6,30.3l-3.2-10.4l-3.2,10.4C12.1,30.3,18.6,30.3,18.6,30.3z"/>
	<path d="M54.6,38.7l-0.2,2.5h-5.5c-0.6,0-3,0.1-4.5,0.2L44.2,39l2.4-0.5c0.1-1.2,0.2-2.6,0.2-3.2v-5.9c0-2.5-0.9-4.9-3.5-4.9
		c-2.5,0-4.4,2.4-4.4,6.1v3.5c0,1.6,0.1,3.2,0.2,4.5l2.9,0.2l-0.2,2.5h-5.9c-0.5,0-3.1,0.1-4.6,0.2L31.1,39l2.7-0.5
		c0.2-1.2,0.4-2.6,0.4-3.4v-7.4c0-0.6-0.1-2-0.4-3.1L30.9,24l0.2-2.6h6l0.7,0.7l0.4,2.6c1.5-2.4,3.5-3.9,6.5-3.9
		c4.7,0,6.6,2.9,6.6,7.9v5c0,1.6,0.1,3.4,0.4,4.5L54.6,38.7z"/>
	<path d="M77.5,38.7l-0.2,2.5h-6.5l-0.4-3.1c-1.5,2.2-3.6,3.5-6.1,3.5c-4.9,0-7.7-3.7-7.7-10.1c0-6.6,3.5-10.5,9.4-10.5
		c1.2,0,2.5,0.1,4,0.5v-4.2c0-0.7-0.2-2.1-0.4-3.2l-3.2-0.6l0.2-2.6c1,0.1,3.2,0.4,4.5,0.4h3l0.7,0.7c0,0-0.4,4.7-0.4,6.7v15.5
		c0,1.6,0.1,3.2,0.4,4.5H77.5z M69.9,32.4v-7.2c-1.2-0.6-2.5-0.9-3.5-0.9c-3,0-4.5,2.4-4.5,7c0,4.4,1.4,6.7,3.9,6.7
		C68.2,38,69.7,36,69.9,32.4z"/>
	<path d="M98.2,38.7L98,41.2h-6.5l-0.4-3c-1.2,2.2-3.4,3.4-5.9,3.4c-3.6,0-5.9-2.1-5.9-5.5c0-3,1.7-4.9,5.4-5.5l6-1v-1.4
		c0-3-1-4.4-3.4-4.4c-1,0-2.4,0.4-3.4,0.6l-0.4,2V28l-2.7,0.1L80.3,22c2.4-0.6,5.2-1,7.2-1c5.1,0,7.6,2.5,7.6,7.7V34
		c0,1.7,0.2,3.4,0.4,4.5L98.2,38.7z M90.6,34.9v-2.6l-4,0.6c-1.5,0.2-2.2,1.1-2.2,2.5c0,1.7,0.9,2.7,2.5,2.7
		C88.7,38.1,90.2,36.9,90.6,34.9z"/>
	<path d="M121,38.7l-0.2,2.5h-6.5l-0.4-3.1c-1.4,2.2-3.6,3.5-6,3.5c-4.9,0-7.7-3.7-7.7-10.1c0-6.6,3.5-10.5,9.4-10.5
		c1.2,0,2.5,0.1,4,0.5v-4.2c0-0.7-0.2-2.1-0.4-3.2l-3.2-0.6l0.2-2.6c1,0.1,3.2,0.4,4.5,0.4h3l0.7,0.7c0,0-0.4,4.7-0.4,6.7v15.5
		c0,1.6,0.1,3.2,0.4,4.5H121z M113.4,32.4v-7.2c-1.2-0.6-2.5-0.9-3.5-0.9c-3,0-4.6,2.4-4.6,7c0,4.4,1.4,6.7,3.9,6.7
		C111.8,38,113.3,36,113.4,32.4z"/>
	<path d="M141.7,38.7l-0.2,2.5H135l-0.4-3c-1.2,2.2-3.4,3.4-5.9,3.4c-3.6,0-5.9-2.1-5.9-5.5c0-3,1.7-4.9,5.4-5.5l6-1v-1.4
		c0-3-1-4.4-3.4-4.4c-1,0-2.4,0.4-3.4,0.6l-0.4,1.7v1.6l-2.7,0.1l-0.5-6.2c2.4-0.6,5.2-1,7.2-1c5.1,0,7.6,2.5,7.6,7.7v5.2
		c0,1.7,0.2,3.4,0.4,4.5L141.7,38.7z M134.2,34.9v-2.6l-4.1,0.6c-1.5,0.2-2.2,1.1-2.2,2.5c0,1.7,0.9,2.7,2.5,2.7
		C132.2,38.1,133.7,36.9,134.2,34.9z"/>
	<path d="M173.9,38.7l-0.2,2.5H168c-0.7,0-4.5,0.2-4.5,0.2l-0.2-2.5l2.4-0.5c0.1-1.2,0.2-2.6,0.2-3.2v-5.7c0-2.6-0.9-4.9-3.5-4.9
		c-2.5,0-4.4,2.2-4.4,6v3.5c0,1.6,0.1,3.2,0.2,4.5l2.9,0.2l-0.2,2.5H155c-0.5,0-3.1,0.1-4.6,0.2l-0.2-2.5l2.7-0.5
		c0.2-1.2,0.4-2.6,0.4-3.4V17.4c0-0.7-0.1-2-0.4-3.2l-3-0.6l0.2-2.6c0,0,3,0.4,4.2,0.4h3l0.9,0.7c-0.1,1.5-0.4,4.7-0.4,6.7v5.5
		c1.2-1.6,3-2.9,5.5-2.9c5,0,6.9,2.9,6.9,7.9v4.9c0,1.6,0.1,3.4,0.4,4.5L173.9,38.7z"/>
	<path d="M188.8,39.5c-1.9,1.4-3.9,2.4-5.7,2.4c-3.9,0-5.2-2.2-5.2-6.1V24.2h-3l-0.1-2.2c1-0.4,2.6-1,3.9-1.5c0.7-1.2,1.6-2.7,2-3.5
		l2,0.1v4.4h5.4l-0.2,2.6h-5v11.6c0,1.5,0.6,2.6,2.1,2.6c1,0,2-0.5,2.9-1.1L188.8,39.5z"/>
</g>
</svg>
