<svg id="Layer_1" data-name="Layer 1" xmlns="http://www.w3.org/2000/svg" viewBox="0 0 136.6 136.6"><defs><style>.cls-1{fill:#454343;}.cls-2{fill:#fff;}</style></defs><title>socail-media-instagram</title><rect class="cls-1" width="136.6" height="136.6"/><path class="cls-2" d="M90,122.5H46.5a35,35,0,0,1-35-35V49.1a35,35,0,0,1,35-35H90a35,35,0,0,1,35,35V87.4A35.06,35.06,0,0,1,90,122.5ZM46.5,21.9A27.23,27.23,0,0,0,19.3,49.1V87.4a27.23,27.23,0,0,0,27.2,27.2H90a27.23,27.23,0,0,0,27.2-27.2V49.1A27.23,27.23,0,0,0,90,21.9H46.5Z"/><path class="cls-2" d="M68.3,99.5A31.2,31.2,0,1,1,99.5,68.3,31.24,31.24,0,0,1,68.3,99.5Zm0-54.6A23.4,23.4,0,1,0,91.7,68.3,23.43,23.43,0,0,0,68.3,44.9Z"/><circle class="cls-2" cx="99" cy="38.1" r="6.5"/></svg>