<svg xmlns="http://www.w3.org/2000/svg" id="Layer_1" data-name="Layer 1" viewBox="0 0 136.58 136.58"><defs><style>.cls-1{fill:#454343}.cls-2{fill:#fff}</style></defs><title>socail-media-twitter</title><rect width="136.58" height="136.58" class="cls-1"/><polygon points="116.04 30.8 116.04 30.8 116.04 30.8 116.04 30.8" class="cls-2"/><path d="M112.29,40.53a12.75,12.75,0,0,1-3.71.48l0.07-.39c1.93-1.54,6.8-6.28,7.44-8.5A1.44,1.44,0,0,0,116,30.8l-6.22,2.64-5.2,2.35h0a20.75,20.75,0,0,0-15.1-6.22c-10.81,0-19.58,7.66-19.58,17.11a25.39,25.39,0,0,0,.8,6.46h0c-7-.19-15.89-3-23.84-7.08C31.22,38.11,30.23,32.61,30.23,32.61,27.77,35.23,26.5,43.88,29,50.67c1.6,4.35,7.09,8.25,7.09,8.25h0a16.67,16.67,0,0,1-5-.82,11.13,11.13,0,0,1-3.55-1.73C26,60.09,29,66.76,34.36,71.54c3.09,2.79,8.74,4.54,8.74,4.54l-8.82.25c-0.5,8.58,18,13.67,18,13.67h0a30.21,30.21,0,0,1-18.44,6.7,35.13,35.13,0,0,1-10.07-1.48c8.9,7.33,20.34,12.4,32.78,11.75,33-1.74,51.63-30.1,52.52-58V49s1.55-.77,4.85-4.08a34.18,34.18,0,0,0,5.36-7.17A67,67,0,0,1,112.29,40.53Z" class="cls-2"/><path d="M116,30.8h0Z" class="cls-2"/></svg>