<?xml version="1.0" encoding="utf-8"?>
<!-- Generator: Adobe Illustrator 19.2.1, SVG Export Plug-In . SVG Version: 6.00 Build 0)  -->
<svg version="1.1"
	 id="svg1926" inkscape:output_extension="org.inkscape.output.svg.inkscape" inkscape:version="0.48.4 r9939" sodipodi:docname="Map-Guaraniphone_Southamerica.svg" sodipodi:version="0.32" xmlns:cc="http://creativecommons.org/ns#" xmlns:dc="http://purl.org/dc/elements/1.1/" xmlns:inkscape="http://www.inkscape.org/namespaces/inkscape" xmlns:rdf="http://www.w3.org/1999/02/22-rdf-syntax-ns#" xmlns:sodipodi="http://sodipodi.sourceforge.net/DTD/sodipodi-0.dtd" xmlns:svg="http://www.w3.org/2000/svg"
	 xmlns="http://www.w3.org/2000/svg" xmlns:xlink="http://www.w3.org/1999/xlink" x="0px" y="0px" viewBox="0 0 734.9 600.4"
	 style="enable-background:new 0 0 734.9 600.4;" xml:space="preserve">
<style type="text/css">
	.st0{fill:#D4EDED;stroke:#000000;stroke-width:0.5;}
	.st1{fill:#8DC63F;}
	.st2{font-family:'Telex-Regular';}
	.st3{font-size:12.1463px;}
	.st4{fill:#F26422;}
	.st5{fill:#BBDD8C;fill-opacity:0.9959;}
	.st6{fill:#7A9072;}
	.st7{fill:#B6CDA9;}
	.st8{fill:#F5BA3D;}
	.st9{fill:#FFDD00;}
	.st10{fill:#7A9072;stroke:#D4EDED;stroke-width:0.9999;stroke-miterlimit:3.9745;}
	.st11{fill:#E9AFAF;stroke:#D4EDED;stroke-width:0.9999;stroke-miterlimit:3.9745;}
	.st12{fill:#D6C2AD;stroke:#D4EDED;stroke-width:0.9999;stroke-miterlimit:3.9745;}
	.st13{fill:#FFFFFF;stroke:#D4EDED;stroke-width:0.9999;stroke-miterlimit:3.9745;}
	.st14{fill:#B6CDA9;stroke:#D4EDED;stroke-width:0.9999;stroke-miterlimit:3.9745;}
	.st15{fill:#7A9072;fill-opacity:0;}
	.st16{fill:#37673F;}
	.st17{fill:#8DC63F;fill-opacity:0.9959;}
	.st18{fill:none;stroke:#D4EDED;}
	.st19{fill:#8DC63F;stroke:#D4EDED;stroke-width:0.9999;stroke-miterlimit:3.9745;}
	.st20{clip-path:url(#rect4755_2_);}
	.st21{clip-path:url(#rect4755_2_);fill:#D6C2AD;stroke:#D4EDED;stroke-width:0.9999;stroke-miterlimit:3.9745;}
	.st22{clip-path:url(#rect4755_2_);fill:#FFDD00;stroke:#D4EDED;stroke-width:0.9999;stroke-miterlimit:3.9745;}
	.st23{fill:none;stroke:#000000;stroke-width:0.5;}
</style>
<rect y="0" class="st0" width="734.9" height="600.4"/>
<sodipodi:namedview  bordercolor="#666666" borderopacity="1.0" fit-margin-bottom="0" fit-margin-left="0" fit-margin-right="0" fit-margin-top="0" gridtolerance="10.0" guidetolerance="10.0" id="base" inkscape:current-layer="svg1926" inkscape:cx="308.3006" inkscape:cy="291.65443" inkscape:pageopacity="0.0" inkscape:pageshadow="2" inkscape:window-height="721" inkscape:window-maximized="1" inkscape:window-width="1366" inkscape:window-x="-2" inkscape:window-y="-3" inkscape:zoom="4" objecttolerance="10.0" pagecolor="#ffffff" showgrid="false">
	</sodipodi:namedview>
<defs>
	
	
		<inkscape:perspective  id="perspective9933" inkscape:persp3d-origin="1377.0332 : 465.52462 : 1" inkscape:vp_x="0 : 698.28693 : 1" inkscape:vp_y="0 : 1000 : 0" inkscape:vp_z="2754.0664 : 698.28693 : 1" sodipodi:type="inkscape:persp3d">
		</inkscape:perspective>
</defs>
<g>
	<rect id="rect4581-0" x="317.3" y="494.7" class="st1" width="34" height="20.9"/>
	<text transform="matrix(1 0 0 1 360.7793 508.7279)" class="st2 st3">Areas con importante número de hablantes</text>
	<rect id="rect4581-04" x="283.3" y="494.7" class="st4" width="34" height="20.9"/>
</g>
<g>
	<rect id="rect4581" x="317.3" y="467.3" class="st1" width="34.1" height="20.9"/>
	<text transform="matrix(1 0 0 1 360.7793 481.347)" class="st2 st3">Guaraní como idioma oficial</text>
	<rect id="rect4581-0-5" x="283.3" y="467.3" class="st5" width="34" height="20.9"/>
</g>
<g>
	<text transform="matrix(1 0 0 1 360.7793 563.4886)" class="st2 st3">Area que afecta como lengua oficial del MerCoSur</text>
	<rect id="rect4581-4" x="317.3" y="549.4" class="st6" width="33.8" height="20.9"/>
	<rect id="rect4581-0-5-8" x="283.3" y="549.4" class="st7" width="34" height="20.9"/>
</g>
<g>
	<rect id="rect4581-0-8" x="317.3" y="522" class="st8" width="34" height="20.9"/>
	<text transform="matrix(1 0 0 1 360.7793 536.1078)" class="st2 st3">Areas con considerable número de hablantes e inmigrantes</text>
	<rect id="rect4581-0-8-1" x="283.3" y="522" class="st9" width="34" height="20.9"/>
</g>
<g>
	<g id="ve" transform="translate(-545.87303,-581.41025)">
		<path id="path3410" inkscape:connector-curvature="0" class="st10" d="M619.7,620.2c4.3-5,2.1-13.1,7.5-17.4
			c1.1-2.5,6.2-5.9,6.9-5.1c-5.9,0.5-3,5.2-1.4,8.3c1.1,4.6-5.3,7.4-1.8,11.9c2,6.5,8.8,0.8,5.9-3.9c-2.5-3.2-5.6-8.6,0.3-10.5
			c3.7-0.8,7-3.9,9.9-3.6c-0.9-1.8-6-0.7-3.6-4.6c4.3-3.9,2,6.2,6.9,5c4.8-0.4,8.2,2.5,8,7.1c4.6,4.7,11-2.5,15.9,1.1
			c4.1,3.3,10.1,5.8,14.4,1.4c1.5-1.7,7-0.5,2.4-1.5c-3.9-1.6,4.5-1.1,5.9-1.1c3.1,0,7.4-0.9,9.8,0c-3,1.1-11.1,1.3-5.2,3.7
			c0.9,1.8-5,1.6-0.9,1.8c2.4-4.7,3.5,6,3.9,0.6c0.8,3.9,1.5,0,0.7-0.3c2.4,0.8,2.3,3.6,4.7,1.7c2.9,1.5,7.8,3.6,3.6,6.5
			c2.5,2.7-4.6,4.6-3.8,4.5c3.8,2.6,12.9-4.7,12.8,3.1c-3.6,1.3-8.9,7.3-3.1,9.6c-1.8,2.7-8.5,2.5-6.3,7.2
			c-5.6,4.5,6.6,7.8,2.9,12.6c-3.3,3-7.8,5-12.3,5.7c-4.4-0.7-2.5,7.1-5.9,3.4c-2.8-2.9-7.3-0.8-10.4-3.9c-5.6-0.7,3.4,4.9,2.2,8
			c0.4,3.5,1.4,8,5.6,7.4c1.2,3.7-5.8,3.1-5.6,7.4c-3.8,1.4-7,4.6-10.4,7.3c0.5-5.3-7.4,3-8.6-2.9c-3.9-4.6-2.4-12.7-8.6-15.4
			c0.1-2.6,5.6-4.6,1.9-7.9c-3.8-4.4-2.8-10.9-1-16c3.6-3.7-0.2-7.7-4.6-5.5c-5.5,2.2-11.3,0.7-13.3-5.4c-4.1-4.8-11.3,1.4-15.7-2.6
			c-3.8-2.4-2.9-6.2-2.2-10.1C624.5,625.5,624.8,617.3,619.7,620.2L619.7,620.2z"/>
		<path id="path3412" inkscape:connector-curvature="0" class="st11" d="M712.3,626.2c-0.7-0.1-1.5-0.3-2.2-0.6
			C710.7,625.3,712.2,625.1,712.3,626.2"/>
		<path id="path3414" inkscape:connector-curvature="0" class="st11" d="M712.9,624.4c0.4-0.7,1.1-1.5,2-1.1
			C714.7,624.2,713.7,624.1,712.9,624.4"/>
		<path id="path3416" inkscape:connector-curvature="0" class="st11" d="M713.2,626c-0.2-0.2-0.4-0.4-0.6-0.6c0.5,0,1-0.1,1.5-0.3
			C714.1,625.6,713.8,626,713.2,626"/>
		<path id="path3418" inkscape:connector-curvature="0" class="st11" d="M713.8,624.8c-0.2-0.1-0.5-0.2-0.7-0.3
			c0.4-0.3,0.9-0.3,1.4-0.1C714.3,624.5,714.1,624.6,713.8,624.8"/>
		<path id="path3420" inkscape:connector-curvature="0" class="st11" d="M714.8,625c-0.1-0.5,0.1-0.6,0.8-0.3
			C715.3,624.8,715,624.9,714.8,625"/>
		<path id="path3422" inkscape:connector-curvature="0" class="st11" d="M714.9,622.6c-0.2,0-0.5,0-0.7,0c0.2-0.5,0.6-0.9,1.2-0.7
			C715.2,622.1,715,622.4,714.9,622.6"/>
		<path id="path3424" inkscape:connector-curvature="0" class="st11" d="M715.2,620.8c-0.8-0.2-0.7-0.5,0.2-0.7
			C715.3,620.3,715.2,620.5,715.2,620.8"/>
		<path id="path3426" inkscape:connector-curvature="0" class="st11" d="M715.3,621.1c-0.7,0.3-1.2,1-1.8,1.4
			C713.7,621.7,714.5,621.2,715.3,621.1"/>
		<path id="path3428" inkscape:connector-curvature="0" class="st11" d="M715.5,620.7c0.1-0.3,0.3-0.5,0.7-0.6
			C715.9,620.3,715.7,620.5,715.5,620.7"/>
		<path id="path3598" inkscape:connector-curvature="0" class="st11" d="M681.3,605.4c-0.2-0.1-0.5-0.1-0.7-0.2
			c0.2-0.2,0.4-0.4,0.7-0.6C681.6,604.9,681.6,605.2,681.3,605.4"/>
		<path id="path3600" inkscape:connector-curvature="0" class="st11" d="M690.7,605.6c-0.2-0.5-3.7-1.3-2-1.8c0.9-0.3,1,0.7,1.6,0.6
			c0.9-0.1,1-1.2,1.8-1.5C692.7,604.8,692.5,604.6,690.7,605.6"/>
		<path id="path3602" inkscape:connector-curvature="0" class="st11" d="M700.5,608.9c0.4,0.5,0.8,1,1.1,1.5
			C701.1,610.1,700.6,609.5,700.5,608.9"/>
	</g>
	<path id="co" inkscape:connector-curvature="0" class="st12" d="M31.2,104.4c-1.4-2.3,5.8-1.9,2-4.9c1.2-4.5,9-2.3,8.2-8.5
		c2.7-3,4.6-7.1,1-8.5c2.8-3.4-1.6-10.7,1.1-14.8c0.1-5.3-2.9-9-3.9-14.2c0-3.3,4.5,0.1,4.4-4.4c0.5-2.5-2.4-8.1,1.2-3.6
		c0.9,3,3.5,5.1,2,0.2c-0.2-6.1,9.5-6.9,9.3-12.8c-1-4.6,3.7-13,8.8-9.9c-1.2,4.7,2.3-4.9,4.6-2.6c6.4,0.5,10.6-6,14.7-8.2
		c4.1-5.3,7.9,3.5,1.7,4.7c-4.8,2.5-9.9,8.6-9.5,14.7c-0.3,3-4.6,7.7,0.4,7.3c5.7,5,1.1,13.7,6.8,17.7c5.2,2.2,12.8-2.1,16.7,3.9
		c2.5,8,11.8,2.6,17,3.7c1.8,5.3-4.9,10.6-2,16.4c2.1,4.1,5.7,9.1,0.4,12.3c3.9,3,6.8,8.5,6.5,14c0-0.5-4-11.6-7.5-4
		c-3.1-2.1-7.5,1.7-11.5,0c-6.7-0.1-2.8,7,1.7,7.1c2.1,4.2-7.1-0.3-6.5,5.3c-0.6,6.5,7.8,10.2,4.6,17.6c-1.5,6.4-1.6,13-3.2,19.3
		c-0.9,3.3-4-1.8-6.2-2.3c1.7-3.1,7.8-9.6,0.8-10.9c-4.5-2.7-9.4-1.3-14,0.4c-7.6,0.3-6.1-9.8-12.3-12.3c-2.6-4.6-7.3-9.3-13.1-9.9
		c-4.1-4.8-10.9,1.5-14.2-5.2C38.1,109.4,33.7,108.4,31.2,104.4"/>
	<path id="gy" inkscape:connector-curvature="0" class="st12" d="M165.3,66.7c3-2.1,0.2-7.8,5.3-7.6c2.6,0.2,4.2-3.7,0.8-3.3
		c-3.4-5.4,6.7-6.3,5.3-10.8c-1.3-1.5,6,4.5,1.8,1.1c-0.8-1.6,3.9,1.7,4.5,2.9c1.6,2.5,5.5,4.1,4.7,7.7c-0.9,1.7-2,8.6-0.4,3.7
		c1.9-4.3,6.3,1.1,8.2,3c3.4,1.3,2.4,5.9,1.1,8.5c2.4,4.3-5.7,1.4-5.5,5.2c-0.5,4.3,0.2,10.8,4.9,11.9c1.4,2.7,2.2,5.8,3.8,8.6
		c-0.1,2.1,5.1,4.1,0.9,3.9c-4.6-1.9-7.9,2.9-12.3,3.6c-1.4,3.7-6.2,1.9-7.7-1c-3.3-1.9-2.8-6-4.6-8.9c-0.2-3.3,0.8-6.7,2.4-9.5
		c1.6-2.5-0.5-6.6-3.1-7.2c0.5-2.4,1.6-6.9-2.6-5.9C168.6,73.9,167.1,69.4,165.3,66.7L165.3,66.7z"/>
	<g id="lakes" transform="translate(-545.87303,-581.41025)">
		<path id="path7132" inkscape:connector-curvature="0" class="st13" d="M654.2,842.3c0,0.2-0.1,0.5-0.1,0.7
			c-3.6-0.2,0.6-3.2-1.6-4.3c-0.8,2.5-1.9,0.6-3.3,0.9c0.2-0.4,0.8-1.8,0-1.8c-1.1,0-1.9-1.9-2.4-0.6c-1.4-0.8-2.1-1.1-0.9-2.8
			c0.2,0.2,0.4,0.5,0.6,0.7c0.4-1-0.7-1.5-0.4-2.3c0.6-2.2,2.5-0.6,3.2,0.2c0.9,1,2.2,1.6,3,2.6c0.6,0.7,0.8,1.9,2,1.7
			c-0.2,0.5-0.8,2.1-0.1,2.5c0.7,0.3,1.6-0.4,1.6,0.7c-0.9-0.3-1.2,1.2-2.3,1"/>
	</g>
	<path id="pe" inkscape:connector-curvature="0" class="st12" d="M12.7,157c1.3-2.7,8-13.6,8.9-6.4c-0.3,2.3-3.6,2.7-2.1,5.1
		c0,2.6,3.4-2,4.7,1.1c2.8-0.4,4.8,8.3,7.2,2.2c3.3-5.7,3.1-10.9,7.7-14.6c6.1-2.7,13.1-4.8,16.4-11.2c1.6-3.1,3-6.8,3.8-7.8
		c0.7-4-5.6-6.4,0.3-6.8c6.5,2.2,7.6,9.6,13.1,12.8c0.7,3,4.4,3.3,3.2,7.1c4,2.8,8.5-0.7,11.5-1.1c2.4,2.7,5.9-2.1,8,2.1
		c8.9,1.1-6.2,11.2,0.8,11.8c4.2,1.4,3,7-1,2.8c-4.6,2.7-11.4,2-15,6.7c-5,2.8-4.7,9.6-5.7,14.1c-4.7,1.5-3.4,6.2-5.5,8.7
		c1.7,4.6,6.3,9.2,7.2,14.1c-3.5,3.8,9,0.4,6.4,7c5.5,2.2,8.9-2.3,12.7-4.9c-0.3,4.2-3.5,12.6,1.5,14.1c7.2-4.6,8.3,5.7,11.2,10.1
		c1.8,5-4,10.9-0.2,16.5c-2.4,3.5-4.2,6.5-2.4,10.3c-3.9,3.4,1.5,8,2.2,9.1c-1.2,4.2-6.4,6.6-5.2,10.3c-2.3,2.3-3,9.7-8.2,5.3
		c-5.2-3.6-7.4-9.3-13.3-12.2c-7.4-3-14-7.5-20.6-11.8c-2.7-4.5-8.8-7.3-9.3-12.9c1.5-2.1-1.7-10-4.8-14.1c-2.6-2.5-1.5-7.1-5.5-8.8
		c-1.4-7.3-5.9-14.2-8.3-21.5c-1.6-5.1-5.9-8.9-7.4-14.2c-1.3-5.9-11.1-6.1-11-11.1c5.2-0.3-2.1-6-0.3-8.2
		C12.7,159.8,12.9,158.3,12.7,157L12.7,157z"/>
	<path id="gf" inkscape:connector-curvature="0" class="st12" d="M217.1,98c1.9-0.6,2.7-2.9,3-4.7c-0.3-2.1,0.9-3.8,1.4-5.6
		c-0.1-2.2-2.5-3.3-2.8-5.5c-0.3-2.4-0.9-5-0.2-7.4c0.6-1.9,3-2.7,3.2-4.8c0.4-2.6,3-1,4.2,0c1.8,0.7,4.3,0.5,5.3,2.4
		c0.9,1.5,2.4,2.9,3.7,3.7c-0.2,0.8-0.9,1.4,0.1,0.6c1.7,0,3.1,2.3,2.1,3.7c0,0.5,0.8-3.6,1.8-1.6c1.6,3-0.4,6.2-2,8.7
		c-1.8,2.7-3.3,5.7-4.3,8.8c-0.9,1.9-2.8,3.6-5,2.7c-0.5-1.5-2.8,0.2-3.8-1c-1.8-0.1-3,2.8-4.8,1.1C218.2,98.8,217.6,98.5,217.1,98
		L217.1,98z"/>
	<path id="bo" inkscape:connector-curvature="0" class="st5" d="M102.7,212.9c4.5,0,9.4,2.8,12.3-2.3c5.9-1.7,9.8-8.6,16.5-7.8
		c7.1-2.1,1.6,7.3,3.6,10.4c-1.4,5.1,3.2,8.8,6.6,11.7c4.4,2.1,10.2,1.7,13.3,5.4c4.7,2.2,8.6,6.4,14.2,5.3
		c3.9,2.5,5.2,9.6,3.8,13.1c-0.9,2.4,2.2,6.2,2.3,9.4c3.4,3.3,9.7-0.5,13.2,2.1c-3.1,4.6,1.4,8.2,4.6,11c3.3,5.5-0.5,11.6-2.3,16.8
		c2.5,1.7-0.4,7.1-0.9,3c-2.3-6-10.1-7-15.6-5.3c-6.5,0.8-14.1,2.4-15.2,10c-1.8,4.5-0.6,10.8-3.9,14.3c-2.9-2.9-11.2-2.2-11.5,3.1
		c-1.6,6.1-3.5-7.8-8.8-3.5c-3.7,1-6.8-5.7-8.3-0.3c-3,2.1-8.3,10.8-11.1,4.8c-0.7-5.1-1.6-10.1-4.2-14.5c-3.5-4.5-1.5-9-1-13.6
		c-3.6-3.8-3.8-8.4-5.3-13.1c-4-4-1-8.3,2.3-11.5c1.3-3.1-6.5-7-1.6-10.9c-2.9-5.3,4.2-10.4,1.4-16c-0.8-5,4.2-8.7-0.2-13
		C105.5,218.6,103.9,215.8,102.7,212.9"/>
	<g id="br" transform="translate(-545.87303,-581.41025)">
		<path id="path2818" inkscape:connector-curvature="0" class="st10" d="M719.9,654.2c-3.9,3-10.6,10.3-19.2,10.7
			c0,6.5-10.6-1.8-15.3-2.4c4.3,5.8,4.8,16,10.2,18.3c-6.3,2.8-13.6,15-17.8,10.4c-10.5,6.2-10.3-14.4-17.8-8.3
			c-2,3.5-19.9-0.8-11.8,7c10.4,3.3-12.5,6.1-0.2,13.7c3.3,8.8,0.5,29.8-5,32.5c-6.9-0.4-19.4,3.8-20.5,12.1
			c-0.4,8.7-10.8,14-4.9,21.6c4.9,7.2,3.1,11.2,11,13.9c3.7,9.4,16.5-11,12,4.7c-3,10.4,12.2,5.6,17.5,6.1
			c6-4.4,15.1-12.4,22.9-10.4c-0.8,8.3-1.3,18.2,7.4,22.9c10.3-0.7,15.1,9.9,25.1,9.6c12.4,4.6-2.1,23.6,13.5,23.9
			c11.6-3.4,2.5,8.9,12,11.7c3.8,9-4.7,17.6-2.1,24.8c2,7.2-3,17.9,10.7,16.1c9-8.5,5.2,20.5,17,13.3c2.9,5.7-6,16.4,4.6,15.8
			c6.8,14.5-13.2,16.8-17.6,25.2c-3.6,5.8-17.5,16.6-4.5,13.2c6.6,9.6,14.7,7.5,23.4,17.7c8.4,1.7-4.2,17.5,5.5,10.1
			c7.7-7.9,3.5-14.2,11.2-21.1c3.8-0.7-0.8-11.2,3.9-4.7c7.8-3-4.7,12.7-8.1,13.6c9.5-1.5,17.1-24.2,24-31.4
			c4.7-2.1,1.7-14.9,1.7-18.6c1.1-5-0.5-8,4.4-8c4.6-5.6,12.2-13.6,20-12.6c6.3-4.2,5.4-8.7,14-7c-5.8,4.7,6.8-5.8,4.4-0.4
			c10.3,1.3,15-9.1,17.8-18.6c8.2-9.4,8.8-23.6,12.4-36c3.2-12.7-1.4-25.4,0.9-28.4c0.3-11.4,6.4,2,9.7-11.1
			c4.4-7.9,1.3-10,9.9-14.1c5.2-7.3,12.3-15.5,12.1-26.2c-0.1-7.5-2.8-23.7-17.1-21.8c-9.8-7.5-20.6-22.4-33.4-17.2
			c-7-1.8-17.4-7.2-21.9-1.2c5.1-10.3-8.6,14-2-2.4c2.2-4.6-1.9-0.5-0.2-6.8c-2-0.4-3-2.8-5.8-1.5c0.4-1.8-5.3-3.6-7.2-4.3
			c-3.9-1.7-3.4-1.4-7.3-3.8c-1.7-0.5-11.1,3-8.2,7c0.8-2.6-10.6,8.5-8.8,7.7c5.2-10.8-9.9,2.7-10.1-8.5c0,4.4,9.4,4.5,14.8,0.8
			c12-11.9-9.9-15-14-8.2c-1.5,0.9,2.8,9.1-1.6,3.5c-8.9,8-16.5,8-6.1,0.8c1.1-10.1,21.9-19.3,9.5-24.8c-5.4-6.7-3.5-20.9-8.2-20
			c-3.3,2.7-8,20.9-18.9,17c-5.8-2.9-17.4-4.5-16.2,3c-8.9-4.7-15.5,6.5-22.4,4.4c-13.2-5.1,0.3-21.8-7.5-27.3
			C720,659.1,723.9,654.3,719.9,654.2L719.9,654.2z M797.3,693.9C792.7,698.3,800.3,695.7,797.3,693.9z M795.1,694.6
			C792.5,699.5,797.2,698.4,795.1,694.6z M799.7,696.9C787.5,698.2,803.3,702.5,799.7,696.9z M793.9,698
			C792.1,700.3,797.1,700.2,793.9,698z M792,699C789.4,700.6,794.8,699.2,792,699z M801.1,699.1
			C796.2,701.4,806.5,700.7,801.1,699.1z M792.9,699.7C787.4,701.8,794.8,702.6,792.9,699.7z M789.5,700.8
			C785.6,703.9,789.9,704.2,789.5,700.8z M790.3,702.2C788,705.3,791.8,703.1,790.3,702.2z M792.2,702.8
			C789.3,704.3,792.2,705.2,792.2,702.8z M790.9,703C788.8,704.4,791,705.2,790.9,703z M788.3,704.1c-8.5,8.8,0.4,5-0.6,6
			C789.2,709.2,790.6,705,788.3,704.1z M791.9,705.9C790.7,705.5,791,708.7,791.9,705.9z M882.8,809.8l0.2,0.4L882.8,809.8z"/>
		<path id="path2886" inkscape:connector-curvature="0" class="st11" d="M882.7,817C883.9,814.1,880.8,816.4,882.7,817"/>
		<path id="path2814" inkscape:connector-curvature="0" class="st11" d="M779.8,712.8c0.7-0.1,1.4-0.6,1.9-1.1
			C780.9,711.6,780,711.9,779.8,712.8"/>
		<path id="path2816" inkscape:connector-curvature="0" class="st11" d="M781.6,713.8c0.6-0.7,1.5-0.5,2.2-1.1
			C783,711.6,781.1,712.6,781.6,713.8"/>
		<path id="path2846" inkscape:connector-curvature="0" class="st11" d="M794.4,681.2c0.2-0.2,0.3-0.5,0.5-0.7
			C794.1,680.3,794,680.5,794.4,681.2"/>
		<path id="path2848" inkscape:connector-curvature="0" class="st11" d="M795.1,683.3c1.1-0.5,0.5-1.5,0-2.2
			C794,681.6,794.6,682.6,795.1,683.3"/>
		<path id="path2824" inkscape:connector-curvature="0" class="st11" d="M790.8,707.1c-0.8,0.3-1.4,1-1.6,1.9c1-0.2,1.2-1.3,2-1.9
			C791.1,707.1,791,707.1,790.8,707.1"/>
		<path id="path2828" inkscape:connector-curvature="0" class="st11" d="M789.6,707.9c0.6-0.7,1.1-1.7,1.9-2.3
			c0.4-0.3,0.7-1.3-0.2-0.9C790.3,705,789.5,706.9,789.6,707.9"/>
		<path id="path2854" inkscape:connector-curvature="0" class="st11" d="M796.4,697.6c0.5-0.2,0.8-0.5,1.1-0.9
			C796.9,696.6,796.5,697,796.4,697.6"/>
		<path id="path2856" inkscape:connector-curvature="0" class="st11" d="M796.4,693.1c0.7,0,1.6-0.2,1.5-1.1
			C797.1,691.7,796.1,692.2,796.4,693.1"/>
		<path id="path2858" inkscape:connector-curvature="0" class="st11" d="M798.1,691.5c0.5-0.3,0.5-0.6,0.2-1.1
			C797.9,690.7,797.8,691.1,798.1,691.5"/>
		<path id="path2862" inkscape:connector-curvature="0" class="st11" d="M806.2,715.1c0.3-0.6,0.4-1.3,0.5-1.9
			C805.8,713.5,805.3,714.5,806.2,715.1"/>
		<path id="path2864" inkscape:connector-curvature="0" class="st11" d="M810.1,709.6C812,711.5,810.5,707.3,810.1,709.6"/>
		<path id="path2866" inkscape:connector-curvature="0" class="st11" d="M815.8,705.5c0.8,0.3,0-0.8,0-0.8
			C815.8,705,815.8,705.2,815.8,705.5"/>
		<path id="path2872" inkscape:connector-curvature="0" class="st11" d="M824.9,708.4c0.4-0.1,0.6-0.4,0.6-0.8
			C824.7,707.4,824.5,707.7,824.9,708.4"/>
		<path id="path2874" inkscape:connector-curvature="0" class="st11" d="M836.6,711.7c0.6-0.2,0.9-0.7,0.6-1.2
			c-0.3,0.8-0.5,1-0.6,0.5C836.6,711.2,836.6,711.5,836.6,711.7"/>
		<path id="path2876" inkscape:connector-curvature="0" class="st11" d="M838.3,714c0.3-0.1,0.5-0.2,0.8-0.3
			C838.4,713.3,838.1,713.4,838.3,714"/>
		<path id="path2878" inkscape:connector-curvature="0" class="st11" d="M839.6,726.1c0.5-0.9,0.9-1.9,0.9-3
			C839.3,723.6,839.6,725.1,839.6,726.1"/>
		<path id="path2882" inkscape:connector-curvature="0" class="st11" d="M846.4,719.9c0.2-0.2,0.4-0.5,0.7-0.7
			C846.3,719.1,846.1,719.3,846.4,719.9"/>
		<path id="path2868" inkscape:connector-curvature="0" class="st11" d="M808.8,927.5c0.2,0.2,0.4,0.4,0.6,0.6
			c0.3-0.7,0.7-1.5,0.1-2.1C809.1,926.5,808.8,927,808.8,927.5"/>
		<path id="path2870" inkscape:connector-curvature="0" class="st11" d="M810.3,936.6c-1.2,0.6-1,2.7-1,3.7
			C810.1,939.4,811,937.6,810.3,936.6z"/>
		<path id="path2880" inkscape:connector-curvature="0" class="st11" d="M834.6,907c0.2-0.7-0.4-1.1,0-1.8c-0.9-0.2-1.3,0.7-1.5,1.4
			C833.7,906.5,834.2,906.7,834.6,907"/>
		<path id="path2884" inkscape:connector-curvature="0" class="st11" d="M841.6,900.5c0.6-0.1,1.2-0.5,1.6-0.9
			C842.5,899,841.3,899.5,841.6,900.5"/>
		<path id="path2888" inkscape:connector-curvature="0" class="st11" d="M883.9,813.2c0.6-0.5,2-1.4,0.9-2.2
			C884.9,811.9,883.9,812.4,883.9,813.2"/>
	</g>
	<path id="sr" inkscape:connector-curvature="0" class="st12" d="M193.3,87.3c-2.1-2.5-1.5-6-1.7-9.1c-0.3-3,2.8-3.1,4.8-3.8
		c1.5-1.2-0.8-2.6,0.7-4c0.3-2,1.4-4.6,3.9-4c2.1-0.2,5.8,1.7,6.4,1.8c0.7-3.7,4.9-0.8,7-0.8c1.7,0.2-2.8-1.1-0.2-1.3
		c2.4,0.2,4.9,0.6,7,1.8c1.2,2.1-1,4.1-2,5.8c-1.6,2.5-0.7,5.6-0.4,8.3c0.3,2.7,4.2,4.4,2.4,7.3c-1.6,1.9-0.2,4.8-1.9,6.8
		c-1.1,3.5-3.6,0.6-5.6,0c-2.3-0.1-4.3,1.9-6.6,0.6c-2.9,1.5,2.4,4.7-1,5.3c-2.1-0.1-4.5-1.1-5.7-2.9c-0.8-2.6-3.3-4.5-3.1-7.4
		c0.2-1.7-1.1-3.3-2.8-2.5C193.7,88.7,194,87.7,193.3,87.3L193.3,87.3z"/>
	<g id="ar" transform="translate(-545.87303,-581.41025)">
		<path id="path4200" inkscape:connector-curvature="0" class="st11" d="M706.6,1037.5c0.3-0.5,0.1-0.6-0.7-0.2
			C706.1,1037.4,706.3,1037.4,706.6,1037.5"/>
		
			<path id="path4518" inkscape:connector-curvature="0" sodipodi:nodetypes="cscccccccccccccccccccccccccccccccccccccccccccccccccccccccccccccccccccccc" class="st10" d="
			M674.1,888c-3.8,2.9-3.9,5.4-7.5,8.7c-2.5,2.2,0,7.6-1.8,11.2c-12,2.4-6.3,12.2-8.1,20.2c4.4,6.4-5.7,7.9-6.6,15.1
			c-7.2,7.1-2.1,16.9-6.9,22.9c-3.8,7,0.8,11.8,2.1,18.5c2,4.9,1.4,11.6-2.5,17.5c-3,4.2,1.8,11.3-5.8,13.9
			c-2.8,9.4,4.8,17.1-2.9,23.9c-2.5,5.8-2.5,11.9-3.4,20c1.3,4.4-4.2,10.3,0.5,14c1.6,3.7-2,10.4,5.5,10.5
			c-1.3,3.2-11.6,1.8-3.4,3.8c4.1,3.4-3,5.7-1.5,9.4c3.5,6.3-7.5,11.2-3.9,18.1c-1.8,5.6-10.4,7.5-9.8,14.1c1,6.2,4.2,7.1,9.6,6.4
			c-1.2,6.8,2,12.9,10.7,10.9c6-1.5,16.4,3.7,18.9,1.9c-1.2-6.8-13-3.7-4.2-6.3c-4.4-4.3-1.5-8,4.4-11.2c-4-1.1-2.4-5.3,0.7,0
			c6-0.3,4.1-6.4,4.5-7.1c4.7-8.1,20.9-10.1,12.7-18.6c-13.2,1.9-14.4-15-2.9-17c7.1,0.7,9.5-5.1,8.6-11.7c1.6-4.9,12.1-5.5,3-7.5
			c2.1-7.4,10.1,6.6,10.1-3.5c-1-4.8-6.8-1.2-4,0.2c-8.4,3.3-9.7-17.2-3.9-13.5c4.6,4.3,22.5,3.2,16.6-4.1c2.8-5.6,3.1-8,0.7-13.5
			c10.8,3.8,22.7-0.1,33.1-3.6c4.4-4.3,16.5-16.7,5.6-19.4c2.5-7.5-2.8-10.6-8.8-14.5c-2.2-6.5,3.3-13.4,2.2-21.1
			c3.2-5.4,0.4-12.8,5.5-16.8c6.4-7.4,11.3-15.2,18.4-19.9c7.6-3.3,14.9-11.1,7.9-19.3c-8.4-2-2.1,12-11.2,13.1
			c-3.7,4.5-8.7,3.3-15.2,2.9c-5.3-1.7-12.2,0-5.6-6.4c4.2-7.2,6.6-15.1-4.5-16.5c-8.2-7.5-21.1-7.3-26.3-18.2
			c-3-7.9-16.6-8.4-16.2,1.9C685.8,887.3,679.1,893.5,674.1,888L674.1,888z M673,1112.5l0.7,0L673,1112.5z M653.5,1130.5
			C654.3,1130.5,651.2,1131,653.5,1130.5z M731.6,1141.2c-3.8,2.3-0.9,3.8-7.3,6.8c4.5,2.9,3.9-1.1,8-1.1c-5.4-1.8,12.9-0.8,4.1-3.6
			c7.3,0.2-5.2-2.8-0.3,0.6C732.2,1143.2,736.6,1141,731.6,1141.2z M726.8,1141.8c-3,2.1-14.2-1.4-5.3,2.9c-8.3,0.7,2.3-0.4-3.3,2.1
			c1.3-0.4-5.6,2.2-2.3,1.3C718.5,1150.2,728,1144.2,726.8,1141.8z M656.1,1152.5c1.2,6.1-5.1,19.3,4.9,18.4
			c-8.7,2.6,13.1,5.1,3.1,0.2c4.1,1,20.8,0.9,15.8-2.1c-9.5,0.7-16.3-7.8-23-11.6C658.6,1154.6,660.2,1157,656.1,1152.5
			L656.1,1152.5z M690.5,1169.6c-7.8,1.1-3.6,1.4,1.5,0.2L690.5,1169.6z"/>
	</g>
	<path id="uy" inkscape:connector-curvature="0" class="st10" d="M192.1,382.4c1.3-1,2.1-3.6,4-2.2c1.9-1.2,4.9-2.6,6.1,0.3
		c1.7,1.6,4.5,2.6,4.3,5.4c0.5,2.6,2.4-0.1,3.4-0.4c1,1.2,1.8,2.7,3.4,3.4c2.4,1.1,4.8,2.4,6.5,4.4c2.3,1.3,4.4,2.8,5.6,5.3
		c1.3,1.1,3.9,2.7,1.8,4.5c-2.3,1.5-2.3,4.9-1.1,7.1c0.1,2.6-2.4,4.1-3.6,6.1c-1.9,1.6-4.2,2.8-6.5,3.7c-2.5,0.6-4.9-0.7-7.4-0.7
		c-2.1,0.9-4.4,1.5-6.2-0.3c-2.8,0.1-4.3-2.8-6.9-2.8c-2.2,0.7-4.1-0.6-5.5-2.2c-1.4-1.4-2.6-3.2-2.3-5.2c-0.9-2.8,3.1-4,2.7-6.4
		c-1.1-2.2-0.4-4.5-0.5-6.8c-0.1-2.1,1.5-3.6,1.3-5.7c0.3-1.9,0.9-3.7,1.4-5.5C192.7,383.7,192.2,383.1,192.1,382.4L192.1,382.4z"/>
	<g id="cl" transform="translate(-545.87303,-581.41025)">
		<path id="path6376" inkscape:connector-curvature="0" class="st14" d="M649.1,851c-4.6,5.7-8.6,9.7-5.1,19
			c-0.7,9.6,2.4,20.3-2.2,29.1c-1.7,4.7,2.2,15.7-1.4,22.2c2.9,11.4-7.5,22.2-5.4,32.5c-0.2,8.6-4.5,16.2-0.4,25.6
			c-1.6,10-4.4,19.6-9.1,28.8c-2.5,7.6-4.6,11.2-7.7,15.5c-0.4,7.1,6.6,16.8-0.5,22.5c-3.8,9.2-0.8,17.7,7.2,12.8
			c5.7,0.9,2.2-2.1-0.4,3.3c4,0,3.9,5.5,0,2.3c2.5,3.1-2.6,6.9-1.7,12.3c-0.7,1.6-2.2,5.9,2.9,7.4c-4.3,3.8-8.9,6-1.6,7.7
			c-3-3.1-8.8,3.9-2.8,1.9c-3.5-0.6-4.7,8.9-1.5,3.1c-2.9,4.9-3.5,5.4-3.9,0.9c0.1,3.1-7.4,0.2-0.4-0.5c-0.8-2.5-4.5-1.9-8.4-1.2
			c4.3,1,1.6,2-3.5,5c-2,5.3,1.5,2.2,0,1.5c3.4-5,7,3.5,6.6,1.3c6.6-0.8,2.7,3,5.3,2.8c-7.1,0.6,3.2,6.5-4.6,3.3
			c-3.5,4.7,12.2-0.4,7.4,3.7c7,3.1-7.2-0.3-6.2,0.1c-1,2.2,5.6,3.6,0.8,5.6c2.9-0.8-4.4,3.1,0.2,6.9c4-6.9,2-2,2,0.1
			c5.9,2.7-4.8-0.8-1.5,2c2.3,3.4,2,0.8-0.9,2.7c9,3.4-8-1.3,0.4,2.5c5.3,1.4-3.3,1.2,2.9,3.7c3.4-6.1,2.5,1.6-2,1.2
			c2.2,4,4.9-0.3,4.8,5.6c-6.6-4.1,3.7,3.5,0.1,2.5c3.4,5.7,1.5-6.1,2.6,1.2c3.7-2.4-3.2-5.2,4.1-2.2c4.5-0.4-2.1,10.5,0.8,2.6
			c-2.6-1.3-2.5,2.8-8.2-0.8c-2.1,9.5,5.8,2.4,3.8,4.8c-4.6,2.6,1.5,5.9,2.8,0.3c-2.6-0.4,2.5-0.7,3.2-0.5c6.2-1.4,8.1,1.3,1.2,0.9
			c-2.3,1.3-7.6-0.2-4.3,4.4c-10.2-2.1,5.5,6.2,1.6,0.6c1.6-2.6,1-0.8,6.9-3.1c8.8-5-3.8,9.2-2.3,2.8c-0.9,2.8-5.8-1.6-1.8,3.5
			c7.3,4.4,10.8-0.7,10.2-7.7c6.9,0.5,11.3-6.3,17.9-3.4c-8.4-5.5-29,2.9-28.7-9c1.7-8.4-8.7-0.9-9.1-8.5
			c-4.3-8.6,8.6-10.9,8.4-17.6c-2.3-6.7,8.2-10.1,3.6-16.8c2.2-2.4,1.1-5.2,3.8-8.3c-7.6-4.3-2.7-1.7,1.6-4.5
			c-1.6-2.5-6.9-2-4.5-6.7c1-5.2-4.3-6.6-2.6-13.8c4.7-3.2,0.1-15.4,3.6-19.4c-1.3-7.4,10.4-11.4,3.3-19.9c-3.8-9.7,9.6-11.7,5-20.5
			c2.2-5.6,8.6-12.5,3.9-17.6c1-7-5.6-12.4-2.6-18.5c2.2-6.4,4.6-8.9,2.9-16.3c1.6-8.6,10.7-16.2,12.2-21.8
			c0.4-7.1-3.9-15.4,2.1-20.6c8.1,0.2,11.6-15.2,2-13.4c0.1-8.4-8-17.6-6.2-23.5C657.1,866.6,651.8,857.8,649.1,851L649.1,851
			L649.1,851z M620.7,1083.3c-6.8,6.1,7.7,2.8,1,0.1l-0.4,0.1L620.7,1083.3L620.7,1083.3L620.7,1083.3z M613.4,1083.5
			C613.5,1085.9,616.8,1082.9,613.4,1083.5z M613.7,1084.8C607.4,1086.7,619.5,1086.3,613.7,1084.8z M617.4,1086.1
			C614.8,1086.6,619.4,1087.7,617.4,1086.1z M615.6,1086.6C616.2,1088.7,614.9,1087.2,615.6,1086.6z M615.4,1088.3
			C607.7,1089.9,621.2,1091.1,615.4,1088.3z M617.5,1092.2C614,1093.2,619.7,1097.3,617.5,1092.2z M612,1092.3
			C607.2,1097.5,615.8,1093.5,612,1092.3z M612.6,1094.3C611.3,1096.2,614.9,1094.1,612.6,1094.3z M616.9,1109.8l0,0.5L616.9,1109.8
			z M606.1,1111.1C603.4,1111.7,607.2,1113.4,606.1,1111.1z M608.2,1112.1C603.2,1114.4,608.3,1115.6,608.2,1112.1z M613.8,1112.4
			C605.3,1113.5,620.7,1113.7,613.8,1112.4z M608.7,1113.2l0.2,0.8L608.7,1113.2z M616.5,1113.2
			C616.9,1115.1,617.4,1112.8,616.5,1113.2z M619.9,1113.5l0.8,0.2L619.9,1113.5z M603.1,1114.4c-1,3.3,6.5,7.1,0.8,0.1
			L603.1,1114.4L603.1,1114.4L603.1,1114.4z M606.1,1114.6C603.2,1118.9,612.9,1116.6,606.1,1114.6z M608.9,1114.9
			c0.1,2.9-3.9,4.9,1.6,3.8C610.4,1117.3,609.6,1116.1,608.9,1114.9z M610.3,1115C609.6,1118.7,613.4,1114.7,610.3,1115z
			 M611.8,1116.3C610.6,1118,614.5,1117.6,611.8,1116.3z M612.9,1117C615.2,1119.8,614.1,1116.2,612.9,1117z M603.9,1117.5
			C599,1117.7,604.6,1121.5,603.9,1117.5z M606.9,1119.2C606.1,1121.1,609.2,1118.6,606.9,1119.2z M604.5,1119.3
			C598.9,1119.7,604.1,1121,604.5,1119.3z M609.5,1119.4c-4.7,1.5,0.6,6.3-5,5.3c1.6,1.9-2.8-1.3,0.8,3.7c-5.2-1.7,2.8,4.1,2.6-2
			c2.7-1.9-1.8,7.2,3,3.7c0.2-1.8,0.8-8.4-0.9-10.4L609.5,1119.4L609.5,1119.4L609.5,1119.4z M604.8,1120.6
			C605.2,1124.1,608.4,1120.6,604.8,1120.6z M603.2,1121C599.4,1122.2,609.4,1123.3,603.2,1121z M604,1122.2
			C599.6,1125.4,605.7,1124.1,604,1122.2z M606.6,1122.4C603.2,1124,610.6,1125.3,606.6,1122.4z M611.3,1125.8
			C610.3,1128.8,614.2,1126.4,611.3,1125.8z M605.9,1130.7c-2.8,0.7,1.5,1.6-2,1.7C603.2,1135.5,612.1,1131.9,605.9,1130.7z
			 M610.2,1133.6C608.8,1133,608.3,1136.9,610.2,1133.6z M606.6,1133.7C605.5,1133.9,608.3,1133.9,606.6,1133.7z M611,1134.5
			C608.8,1137.4,616.7,1138.8,611,1134.5z M604.5,1134.6C601,1139.8,608.9,1134.1,604.5,1134.6z M608.3,1136.1
			C605.5,1138.1,612.2,1138,608.3,1136.1L608.3,1136.1z M609.7,1136.8c-0.2,2.7-2.9,0.9-0.2,3
			C612.7,1139.4,612.7,1137.5,609.7,1136.8z M612.3,1138.4C612.7,1142.8,614.4,1139.9,612.3,1138.4z M611.1,1139.1
			C609.4,1140.6,613.4,1141,611.1,1139.1z M609.6,1140.6C603.6,1143.5,613.2,1142.8,609.6,1140.6z M614.9,1140.9
			C611.2,1142.8,617.7,1141.7,614.9,1140.9z M616.1,1141C615.5,1143,618.1,1141.5,616.1,1141z M606.1,1141.2
			C602.3,1147.4,609.6,1141.9,606.1,1141.2z M613.3,1141.5C611.9,1142.8,616.2,1142.2,613.3,1141.5z M622.1,1142.3
			C627.7,1145.8,626,1144.2,622.1,1142.3z M614.4,1143.4C612.8,1146.3,618.5,1146,614.4,1143.4z M608.4,1144.5
			C605.2,1150.8,611.4,1146.6,608.4,1144.5z M615.6,1144.6C617.5,1147.6,617.1,1144,615.6,1144.6z M607.3,1144.9
			C605.5,1146.6,608.5,1146.4,607.3,1144.9z M611.5,1144.9C613.9,1148.4,615.9,1145.6,611.5,1144.9z M616.2,1145.9
			C614.9,1145.8,617,1146.8,616.2,1145.9z M609.8,1146C605.6,1149.4,610.6,1148.7,609.8,1146z M623.5,1146.3
			C620.3,1147.5,622.5,1148.5,623.5,1146.3z M616.6,1146.5C615.9,1148.3,618.6,1146.1,616.6,1146.5z M614.5,1146.6
			C616,1150.1,619.6,1148,614.5,1146.6z M611,1146.9C606.3,1148.9,613.4,1146.7,611,1146.9z M613.7,1147.9
			C612.4,1147.9,614.9,1148.6,613.7,1147.9z M613,1148.1C609.9,1148.9,618.7,1151.1,613,1148.1z M614.7,1148.8
			C616.4,1152,618.9,1149.1,614.7,1148.8z M616.6,1150.7C612.4,1153.6,619,1153.7,616.6,1150.7z M649.6,1151.2
			c-5.1,3.2-5.3,2.8-6.9,3.8c-5.9,7.1,14.9,0.7,4.1,5.7c-8,3,11.2,9.2,3.8,6.4c-5.2-0.5-6.7-1-11.9-1.6c6.2,2.6,4.2,1.5,1.5,3.1
			c-0.3-4.3-9.9,0.1-10.1-0.2c3.5,0.9,12.5,0.1,8.8,2c5.2,0.3,5.8-1.7,10.9,0.8c-10.6,2,7-0.9,5.8-0.2c-0.8-7.1,4.8-20.2-5.3-19.7
			L649.6,1151.2L649.6,1151.2L649.6,1151.2z M609.9,1153.4c2.4,4,15.1,5.3,7.8,3.2C615.3,1155.2,612.4,1154.9,609.9,1153.4z
			 M618.3,1154.3C614.2,1154.5,622.2,1155.1,618.3,1154.3z M621.6,1158.7c-2,2.5-0.3,1.3-3.1,2.2c0,3.5,10.1,0.7,3.6,3.5
			c10.1-0.1,3.7-4.4,0.2-5.5L621.6,1158.7L621.6,1158.7L621.6,1158.7z M630.7,1162.7c-5.6,0.7,2.4,5.5,0.7,2
			C635.2,1163.9,631.6,1163.3,630.7,1162.7z M633.4,1163.4c-1.7,3.1,6.6,2.9,2.1,0.3L633.4,1163.4L633.4,1163.4L633.4,1163.4z
			 M634.9,1170.6C632.8,1172.3,641,1170.6,634.9,1170.6z M642.1,1171c-11.4,0.5,6,3.3-1.8,0.9C640.2,1172.3,643.5,1170.9,642.1,1171
			z M645.3,1171.2C642.3,1172.2,645.2,1172.2,645.3,1171.2z M655.9,1171.3c-7.6,0.1-14.1,2.4-4.6,4.1c-3.3-5.4,5.3,1.8,9,1.7
			c-1-3.5-8.5-2.6-1.4-3c-8.3-2.3-3.3-0.3-2-2.8L655.9,1171.3L655.9,1171.3L655.9,1171.3z M644.3,1173.4l0.6,0.5L644.3,1173.4z
			 M645.3,1174.4C643.4,1174.1,646,1175.8,645.3,1174.4z M647.3,1174.7C646,1174.6,648.2,1175.7,647.3,1174.7z"/>
		<path id="path6426" inkscape:connector-curvature="0" class="st14" d="M648.9,1175.7c0-0.2-0.2-0.4-0.6-0.4
			C648.5,1175.4,648.7,1175.5,648.9,1175.7"/>
		<path id="path6432" inkscape:connector-curvature="0" class="st14" d="M663.5,1179.3c0.1-0.2,0.3-0.4,0.4-0.6
			c-0.6-0.1-1.2-0.1-2,0.2C662.7,1178.8,663.2,1179,663.5,1179.3"/>
		<path id="path6440" inkscape:connector-curvature="0" class="st14" d="M666.4,1179.2c0.4-0.5,0.2-0.6-0.7-0.3
			C665.9,1179,666.1,1179.1,666.4,1179.2"/>
		<path id="path6442" inkscape:connector-curvature="0" class="st14" d="M667.5,1179.3c0-0.3-0.1-0.5-0.3-0.7
			C667.3,1178.9,667.4,1179.1,667.5,1179.3"/>
		<path id="path6430" inkscape:connector-curvature="0" class="st14" d="M662.7,1177c0.3-0.2,0.7-0.4,1-0.7
			C662.9,1176,662.5,1176.2,662.7,1177"/>
		<path id="path6434" inkscape:connector-curvature="0" class="st14" d="M665.7,1178.3c0.1-0.5,0-1-0.5-1.2
			c-0.4,0.2-0.8,0.5-1.1,0.8C664.6,1178,665.1,1178.2,665.7,1178.3"/>
		<path id="path6436" inkscape:connector-curvature="0" class="st14" d="M668,1171.8c-0.3,0.6,0.9,0.6,1.4,0.6
			C669.1,1172.2,668.6,1172,668,1171.8"/>
		<path id="path6438" inkscape:connector-curvature="0" class="st14" d="M669.1,1173.8c-0.5,0-1,0.2-1.4,0.5
			c0.4,0.3,0.9,0.3,1.6,0.2C669.3,1174.3,669.2,1174,669.1,1173.8"/>
		<path id="path6444" inkscape:connector-curvature="0" class="st14" d="M671.4,1174.2c1-0.6,0.7-1-0.3-0.7
			C671.2,1173.8,671.3,1174,671.4,1174.2"/>
		<path id="path6364" inkscape:connector-curvature="0" class="st14" d="M614.4,1157.5c-0.6,0-0.8-0.1-1.3,0.6
			C613.5,1157.9,613.9,1157.7,614.4,1157.5"/>
		<path id="path6372" inkscape:connector-curvature="0" class="st14" d="M615.9,1160.3c0.4-0.2,0.7-0.5,1.1-0.7
			C616.1,1159.4,615.7,1159.6,615.9,1160.3"/>
		<path id="path6374" inkscape:connector-curvature="0" class="st14" d="M619.2,1158.7c-0.4,0-0.9,0.1-1.4,0.2
			c0.1,0.2,0.1,0.5,0.2,0.7c-0.5-0.1-1-0.3-1.6-0.4C617.1,1159.4,619.3,1160.2,619.2,1158.7"/>
		<path id="path6378" inkscape:connector-curvature="0" class="st14" d="M620.2,1164.8c0.6-0.9-0.5-1-1.5-0.5
			C619.5,1164.1,620,1164.3,620.2,1164.8"/>
		<path id="path6380" inkscape:connector-curvature="0" class="st14" d="M627.7,1164.3c-0.2,0-0.4,0-0.6,0.1c0.2,0.6-0.3,0.9-1.2,1
			C626.5,1166.4,629.2,1164.7,627.7,1164.3"/>
		<path id="path6382" inkscape:connector-curvature="0" class="st14" d="M626.3,1167.2c0.5-0.5,0.7-0.7,1.3-0.6
			c-0.3-0.4-0.9-0.4-1.8,0C626,1166.9,626.1,1167.1,626.3,1167.2"/>
		<path id="path6384" inkscape:connector-curvature="0" class="st14" d="M629.6,1162.5c-0.3,0-0.7,0.1-1,0.3
			C628.9,1162.7,629.3,1162.6,629.6,1162.5"/>
		<path id="path6388" inkscape:connector-curvature="0" class="st14" d="M628.8,1166.2c-0.1-0.2-0.3-0.5-0.5-0.7
			C628.5,1165.7,628.6,1165.9,628.8,1166.2"/>
		<path id="path6390" inkscape:connector-curvature="0" class="st14" d="M628.1,1167.6c-0.2-0.1-0.4-0.2-0.7-0.2
			C627.6,1167.5,627.8,1167.5,628.1,1167.6"/>
		<path id="path6392" inkscape:connector-curvature="0" class="st14" d="M628.8,1167.3c0.8-0.7,0.6-0.9-0.5-0.5
			C628.4,1167,628.6,1167.1,628.8,1167.3"/>
		<path id="path6396" inkscape:connector-curvature="0" class="st14" d="M630,1169.9c0.2-0.5,0.4-0.7-0.3-0.7
			C629.8,1169.4,629.9,1169.7,630,1169.9"/>
		<path id="path6398" inkscape:connector-curvature="0" class="st14" d="M634,1165.6c-0.2,0.4-0.3,0.6,0.2,0.7
			C634.2,1166.1,634.1,1165.9,634,1165.6"/>
		<path id="path6400" inkscape:connector-curvature="0" class="st14" d="M641.2,1165.6c0.2-0.9-0.5-1.4-0.5-2.2
			c0.3,0.5,0.8,0.5,1.7,0.1c-1-0.5,0.1-2.2-0.8-2.7c-1.4-0.8-1.8,1.4-1.3,1.9c-0.5-0.2-1.1-0.2-1.8,0.1
			C638.6,1164.1,639.3,1165.2,641.2,1165.6"/>
		<path id="path6404" inkscape:connector-curvature="0" class="st14" d="M642.5,1164.9c0.8-0.9,0.6-1-0.7-0.3
			C642.1,1164.7,642.3,1164.8,642.5,1164.9"/>
		<path id="path6408" inkscape:connector-curvature="0" class="st14" d="M643,1165.9c0.8-0.9-0.7-0.7-1.4-0.4
			C642.1,1165.7,642.5,1165.8,643,1165.9"/>
		<path id="path6410" inkscape:connector-curvature="0" class="st14" d="M641.7,1170.5c-0.6-0.1-1.3,0.1-2.1,0.4
			C640.2,1171.1,640.9,1171,641.7,1170.5"/>
		<path id="path6328" inkscape:connector-curvature="0" class="st14" d="M609.4,1149.8c1.5-1-0.8-0.7-1.3-0.8
			C608.5,1149.3,609,1149.5,609.4,1149.8"/>
		<path id="path6360" inkscape:connector-curvature="0" class="st14" d="M616.2,1148.9c0.5-0.5,0.2-0.6-0.7-0.3
			C615.7,1148.7,616,1148.8,616.2,1148.9"/>
		<path id="path6366" inkscape:connector-curvature="0" class="st14" d="M615.8,1156.4c0,0.3,0.2,0.4,0.5,0.5
			C616.1,1156.7,616,1156.5,615.8,1156.4"/>
		<path id="path6300" inkscape:connector-curvature="0" class="st14" d="M607,1137.3c0.5-0.6,0.6-1.4-0.4-1.3
			C606.4,1136.6,606.5,1137,607,1137.3"/>
		<path id="path6226" inkscape:connector-curvature="0" class="st14" d="M607.2,1111.9c0.7-0.7,0.5-0.9-0.5-0.6
			C606.8,1111.5,607,1111.7,607.2,1111.9"/>
		<path id="path6236" inkscape:connector-curvature="0" class="st14" d="M607.6,1114.7c0-0.6-0.7-0.7-1.4-0.7
			C606.8,1114.2,607.3,1114.4,607.6,1114.7"/>
		<path id="path6242" inkscape:connector-curvature="0" class="st14" d="M602.8,1122.9c0.4-0.5,0.2-0.6-0.7-0.3
			C602.4,1122.7,602.6,1122.8,602.8,1122.9"/>
		<path id="path6262" inkscape:connector-curvature="0" class="st14" d="M606.1,1120.7c0.3-0.5,0.2-0.9-0.2-1.1
			C605.2,1120.3,605.4,1120.6,606.1,1120.7"/>
		<path id="path6266" inkscape:connector-curvature="0" class="st14" d="M603.3,1126.7c-0.1-0.2-0.3-0.3-0.6-0.4
			C602.9,1126.4,603.1,1126.6,603.3,1126.7"/>
		<path id="path6278" inkscape:connector-curvature="0" class="st14" d="M605.9,1124.3c-0.1-0.2-0.3-0.3-0.7-0.3
			C605.4,1124.1,605.6,1124.2,605.9,1124.3"/>
		<path id="path6298" inkscape:connector-curvature="0" class="st14" d="M618,1114.6c-0.2-0.2-0.4-0.3-0.6-0.4
			C617.5,1114.4,617.7,1114.5,618,1114.6"/>
		<path id="path6166" inkscape:connector-curvature="0" class="st14" d="M609,1094.3c-0.2-0.2-0.4-0.3-0.7-0.4
			C608.5,1094.1,608.8,1094.2,609,1094.3"/>
		<path id="path6176" inkscape:connector-curvature="0" class="st14" d="M609.4,1094.5c0.2,0,0.5,0.1,0.7,0.1c0.3-0.5,0.4-1,0.5-1.4
			C609.9,1093.4,609.3,1093.9,609.4,1094.5"/>
		<path id="path6222" inkscape:connector-curvature="0" class="st14" d="M614.6,1096.1c0.4-0.6,1-1.7-0.2-1.5
			C614.2,1095.2,614.3,1095.7,614.6,1096.1"/>
		<path id="path6240" inkscape:connector-curvature="0" class="st14" d="M615.5,1096.7c0.4-0.4,1-0.8,1.6-0.9
			C616.7,1094.9,614.8,1095.9,615.5,1096.7"/>
		<path id="path6244" inkscape:connector-curvature="0" class="st14" d="M616.6,1094.8c0.1-0.4,0-0.6-0.4-0.8
			C616.4,1094.3,616.5,1094.5,616.6,1094.8"/>
		<path id="path6248" inkscape:connector-curvature="0" class="st14" d="M619.6,1089.6c0-0.3-0.2-0.5-0.4-0.7
			C619.3,1089.1,619.4,1089.4,619.6,1089.6"/>
		<path id="path6250" inkscape:connector-curvature="0" class="st14" d="M611.2,1106.6c0.5-0.2,0.8-0.5,1-0.9
			C611.4,1105.6,611,1105.9,611.2,1106.6"/>
		<path id="path6252" inkscape:connector-curvature="0" class="st14" d="M616.5,1098.5c0.9-1.1,0.3-2-1.2-1.1
			C615.8,1097.7,616.2,1098.1,616.5,1098.5"/>
		<path id="path6256" inkscape:connector-curvature="0" class="st14" d="M617.1,1097c0-0.5-0.2-0.7-0.7-0.9
			C616.2,1096.7,616.4,1097.1,617.1,1097"/>
		<path id="path6144" inkscape:connector-curvature="0" class="st14" d="M612.8,1080.6c-0.3-0.1-0.2-0.4-0.8-0.1
			C612.2,1080.5,612.5,1080.6,612.8,1080.6"/>
		<path id="path6174" inkscape:connector-curvature="0" class="st14" d="M614.9,1083.5c0.8-0.7-0.2-0.7-0.7-0.4
			C614.4,1083.3,614.7,1083.4,614.9,1083.5"/>
		<path id="path6130" inkscape:connector-curvature="0" class="st14" d="M618.4,1061.3c-0.5-0.5-0.9-0.1-1.5,0.4
			c-0.8,0.7-1.7-0.8-2.3-0.8c0.8,1.3-1.2,3-0.9,4c0.4,1.7-0.9,4.3-0.7,6c0.1,0.7-1,1.2-1,2c0,0.8,1,1,1.7,1.2c0.6,0.2,1.3,0.4,2,0.4
			c1.4,0.2,1-1.8,1.1-2.2c2.4-0.2,0.7-1.7,0.3-2.3c0.5,0.1,1,0.1,1.6,0c-0.1-0.5-3.3-3-0.9-3c-1.4-1,0.7-1.5,1.9-2.2
			C618.8,1063.9,618.3,1062.7,618.4,1061.3"/>
		<path id="path6132" inkscape:connector-curvature="0" class="st14" d="M608.6,1076.7c0.4-0.2,0.7-0.4,1.1-0.6
			c-0.4-0.3-0.9-0.3-1.6,0C608.3,1076.4,608.5,1076.5,608.6,1076.7"/>
		<path id="path6134" inkscape:connector-curvature="0" class="st14" d="M606.4,1087.7c0.5-0.6,0.3-0.9-0.5-0.7
			C606.1,1087.2,606.2,1087.5,606.4,1087.7"/>
		<path id="path6136" inkscape:connector-curvature="0" class="st14" d="M608.7,1085.6c0.1-0.4,0.2-0.6-0.3-0.7
			C608.5,1085.1,608.6,1085.3,608.7,1085.6"/>
		<path id="path6138" inkscape:connector-curvature="0" class="st14" d="M617.6,1068.2c0.4-0.6,0.2-0.6-0.8-0.1
			C617.1,1068.1,617.3,1068.1,617.6,1068.2"/>
		<path id="path6140" inkscape:connector-curvature="0" class="st14" d="M619,1067.4c0.1-0.7-0.4-1.1-1.3-0.9
			C618.3,1066.8,618.7,1067,619,1067.4"/>
		<path id="path6142" inkscape:connector-curvature="0" class="st14" d="M611.1,1085.7c0-0.7-0.9-0.7-1.6-0.2
			C610.1,1085.6,610.6,1085.7,611.1,1085.7"/>
		<path id="path6146" inkscape:connector-curvature="0" class="st14" d="M611.6,1084.4c0.5-0.4,0.8-0.8,0.8-1.2
			c-0.7,0.5-1.3,0.6-1.8,0.4C610.7,1084.1,611,1084.5,611.6,1084.4"/>
		<path id="path6148" inkscape:connector-curvature="0" class="st14" d="M613,1080.9c-0.2-0.1-0.5-0.1-0.8-0.1
			C612.4,1080.9,612.7,1080.9,613,1080.9"/>
		<path id="path6150" inkscape:connector-curvature="0" class="st14" d="M612.4,1082.3c-0.1-0.2-0.4-0.2-0.7-0.1
			C611.9,1082.3,612.2,1082.3,612.4,1082.3"/>
		<path id="path6152" inkscape:connector-curvature="0" class="st14" d="M614.7,1079.3c0.2-0.5,0.7-1,1.4-1.1
			c-1,0.2-1.8-0.2-2.8,0.6C613.9,1078.8,614.3,1079,614.7,1079.3"/>
		<path id="path6154" inkscape:connector-curvature="0" class="st14" d="M611.8,1087.1c0.5-0.8-0.4-1.1-1.1-1.1
			C610.9,1086.5,611.3,1086.9,611.8,1087.1"/>
		<path id="path6156" inkscape:connector-curvature="0" class="st14" d="M622.2,1061.5c0.2-0.4,0.1-0.7-0.3-0.8
			C622,1061,622.1,1061.3,622.2,1061.5"/>
		<path id="path6158" inkscape:connector-curvature="0" class="st14" d="M619.3,1071.2c-0.3-0.4-0.8-0.5-1.4-0.4
			C618.4,1070.9,618.8,1071,619.3,1071.2"/>
		<path id="path6162" inkscape:connector-curvature="0" class="st14" d="M614.6,1082.6c0.2-0.3,0.4-0.6,0.7-0.9
			c-0.5-0.2-1.1-0.3-1.7-0.1C613.8,1082,614.1,1082.4,614.6,1082.6"/>
		<path id="path6168" inkscape:connector-curvature="0" class="st14" d="M615.8,1079.6c-0.1-0.2-0.3-0.3-0.7-0.2
			C615.4,1079.5,615.6,1079.5,615.8,1079.6"/>
		<path id="path6172" inkscape:connector-curvature="0" class="st14" d="M615.7,1081.5c0-0.4-0.2-0.7-0.6-0.9
			C614.8,1081.2,615,1081.5,615.7,1081.5"/>
		<path id="path6178" inkscape:connector-curvature="0" class="st14" d="M612,1088.3c0.8,0.4,2.3-0.2,3.3-0.4
			C614.7,1087.1,613.2,1087.1,612,1088.3"/>
		<path id="path6180" inkscape:connector-curvature="0" class="st14" d="M612.3,1090.8c0.4-0.6,0-1.1-0.5-1.2
			C611.5,1090.2,611.7,1090.7,612.3,1090.8"/>
		<path id="path6182" inkscape:connector-curvature="0" class="st14" d="M615.8,1082.6c0.4-0.8,0.2-0.8-0.8-0.1
			C615.2,1082.5,615.5,1082.6,615.8,1082.6"/>
		<path id="path6186" inkscape:connector-curvature="0" class="st14" d="M611.8,1091.6c0.5-0.7,0.3-0.8-0.7-0.3
			C611.4,1091.4,611.6,1091.5,611.8,1091.6"/>
		<path id="path6188" inkscape:connector-curvature="0" class="st14" d="M617.3,1080.9c0.7-0.8,0-1.4-0.7-1.4
			C616.7,1080,616.9,1080.5,617.3,1080.9"/>
		<path id="path6190" inkscape:connector-curvature="0" class="st14" d="M615.6,1083.7c0.6-0.5,0.6-0.7-0.3-0.7
			C615.5,1083.2,615.6,1083.5,615.6,1083.7"/>
		<path id="path6192" inkscape:connector-curvature="0" class="st14" d="M614.4,1087.1c0.2-0.3,0.3-0.5,0.3-0.8
			c-0.4,0.2-0.7,0.3-1.1,0.6C613.9,1087,614.2,1087,614.4,1087.1"/>
		<path id="path6198" inkscape:connector-curvature="0" class="st14" d="M614.8,1091.3c0.5-0.1,1.1-0.1,1.6-0.1
			c-0.1-0.8-1.8-1.2-2.9-0.8C613.8,1090.9,614.2,1091.2,614.8,1091.3"/>
		<path id="path6202" inkscape:connector-curvature="0" class="st14" d="M616.7,1086.1c0.4-0.1,0.8-0.1,1.1-0.2
			C617.5,1083.8,615,1085.4,616.7,1086.1"/>
		<path id="path6204" inkscape:connector-curvature="0" class="st14" d="M626,1064c0.4-0.5,0.2-0.7-0.6-0.4
			C625.6,1063.7,625.8,1063.9,626,1064"/>
		<path id="path6208" inkscape:connector-curvature="0" class="st14" d="M613.7,1093.2c0.8-0.7,1.6-0.4,2.1-0.2
			C616,1091.9,613.6,1091.9,613.7,1093.2"/>
		<path id="path6212" inkscape:connector-curvature="0" class="st14" d="M615.4,1092c0.4-0.6,0.1-0.7-0.8-0.2
			C614.9,1091.9,615.2,1091.9,615.4,1092"/>
		<path id="path6214" inkscape:connector-curvature="0" class="st14" d="M621,1080c0.2-0.8,0.4-1.5-0.8-0.9
			C620.1,1079.6,620.4,1079.9,621,1080"/>
		<path id="path6216" inkscape:connector-curvature="0" class="st14" d="M614.8,1094.4c1.5-0.7,0.2-1.7-0.9-1.2
			C614,1093.8,614.3,1094.3,614.8,1094.4"/>
		<path id="path6470" inkscape:connector-curvature="0" class="st14" d="M623.6,1148.9c0.1-0.3,0.3-0.5,0.4-0.8
			c0.1,0.2,0.1,0.5,0,0.8C623.9,1148.9,623.8,1148.9,623.6,1148.9"/>
	</g>
	<g id="ec" transform="translate(-545.87303,-581.41025)">
		<path id="path6588" inkscape:connector-curvature="0" class="st14" d="M578,687.1c-0.3,3.6-4.9,2.4-6.5,4.4
			c-6.2-0.1-0.4,7.2-4.9,9.6c-3.3,1.8,1.8,4.5-1.3,4.3c-0.1,2.7-5.2,1.9-2.2,5.2c-0.7,2.8,0.8,7.2-1.2,8.6c2.6,1,4.8,6.1,6,1.6
			c1.7-2.9,0.6,4,1.9-1c-0.6-2,1.7-4.2,0.2-1c1.6,3.7-0.8,9.3-3.5,10.3c1.8,2.4,1.2,5-1.5,5.7c0.4,2-0.1,4.4,2.9,2.1
			c2.8,1.4,4.9,2,6,5.3c5,1,4.5-6.7,6.7-9.8c1.1-3.5,1.9-2.5,3.6-5.7c4.3-3.6,11-3.6,14.6-8.6c3.2-2.3,4.2-8.7,6-10.1
			c2.6-1.1-2.4-6.7-1.7-7.3c4.4,0.2-4-2-4.4-4.3c-2.6-1.2-1.9,2.5-5,0.8c-5.1,0.8-4.8-5.3-9.6-5.3
			C581.7,690.7,579.9,688.8,578,687.1L578,687.1z M568.8,722.6c-3.1-0.2-1.7,5.7-0.5,1.4C568.7,723.6,570.7,723,568.8,722.6z"/>
		<path id="path4798" inkscape:connector-curvature="0" class="st14" d="M570,722.4c0.3-0.5,0.3-1,0-1.4
			C569.8,721.5,569.8,721.9,570,722.4"/>
	</g>
	<g id="fk" transform="translate(-545.87303,-581.41025)">
		<g id="fk-">
			<path id="path4876" inkscape:connector-curvature="0" class="st10" d="M714.6,1146.9c0.6-0.1,0.9-0.4,0.9-0.8
				c-0.3-0.9-1.7,1-0.8-0.7C712.8,1145.6,714,1146.6,714.6,1146.9"/>
			<path id="path4880" inkscape:connector-curvature="0" class="st10" d="M719.8,1142c0.4,0.2,0.8,0.2,1.4,0.1
				c0.1-0.6-0.4-0.9-1.1-0.7c0.2,0.2,0.4,0.4,0.7,0.6C720.5,1142,720.1,1142,719.8,1142"/>
			<path id="path4882" inkscape:connector-curvature="0" class="st10" d="M722,1141.3c0.2,0.2,0.4,0.3,0.8,0.3
				C722.5,1141.5,722.2,1141.4,722,1141.3"/>
			<path id="path4884" inkscape:connector-curvature="0" class="st10" d="M723.6,1140.9c0.2,0.6,1.7,0.6,2.5,0.3
				C725.3,1141,724.4,1141.1,723.6,1140.9"/>
			<path id="path4886" inkscape:connector-curvature="0" class="st10" d="M723.9,1149.2c0.8-0.5,0.2-0.8-0.3-0.7
				C723.7,1148.8,723.8,1149,723.9,1149.2"/>
			<path id="path4890" inkscape:connector-curvature="0" class="st10" d="M733.5,1147.3c0.1,0.2,0.3,0.3,0.6,0.4
				C733.9,1147.6,733.7,1147.4,733.5,1147.3"/>
		</g>
		<path id="fk." inkscape:connector-curvature="0" class="st15" d="M722.3,1151.2c9.1,0,14.7-12,5.7-12
			C719.1,1139.1,713.2,1151.2,722.3,1151.2"/>
	</g>
	<path id="rect9031" inkscape:connector-curvature="0" sodipodi:nodetypes="ccccc" class="st16" d="M189.2,417.9l3.6,2.5
		c-0.2,0.5-1,2.9-1.9,2.7c-0.6,0.1-3.8-2.3-3.9-2.7C187,419.7,188.8,418.1,189.2,417.9L189.2,417.9z"/>
	<path id="path4518-1-2" inkscape:connector-curvature="0" sodipodi:nodetypes="sscssccssscccss" class="st8" d="M184.9,378.3
		c-1.7,0.1-3.3,0.6-4.5,1.3c-2.1,1.3-2.8-0.2-5.4-0.2c0,0.3,0.1,0.5,0.2,0.7c0.7,2.6-1.3,5.3-2.2,7.8c-0.8,2.4-2.2,4.8-4.3,6.9
		c-3.3,3.2-2.5,7.4-2.5,7.8c0,3.7,4.5,6,6.2,7.2c1.7,1.2-0.2,1.1,2.5,2.2c2.9,1.3,3.6,0.6,5.4,2.2s7.2,2.3,6.9,2.1
		c-2.2-6.5,4.5-13.4,3.4-21.1c2.5-4.2,1.3-9.7,3.2-13.8c-1.2-0.6-2.2-2-3.8-2.6C188.3,378.4,186.6,378.2,184.9,378.3z"/>
	<g id="ar-3-3" transform="translate(-545.39174,-581.35334)">
		<path id="path4518-1-8" inkscape:connector-curvature="0" class="st16" d="M704.5,896.2l-2.1,15h0c0.6,0.4,1.3,0.8,1.9,1.2
			c0.9,0.6,2,1.4,3.4,1.4c1,0,1.3,1.5,2.4,1.7c1.8,0.3,4.2,3.3,5.5,2.4c1.1-0.8,1.2,1.9,2.8,2c0.9,0.1,1.5,0.7,1.5,2
			c0,0.8,1.4,2,3.2,2.1c1.3,0.1,2.3,1.1,3.4,1.4c1.3,0.3,1.9,1.3,3,2c2.2,1.4,3.4,3.5,4.8,4.3c0.4-0.5,0.8-0.9,1.4-1.5
			c4.2-7.2,6.6-15.1-4.5-16.5C723.4,906.8,710.2,905.5,704.5,896.2L704.5,896.2z"/>
	</g>
	<path id="path4518-1-0" inkscape:connector-curvature="0" class="st16" d="M157.1,329.9L157.1,329.9l-9.4,10.5L161,341l0.2,16.3
		l21.6,0.7c0,0,0.1,0,0.2,0.1c-0.8-1.3-1.6-2.8,0.9-3c2.3-0.3,1.9-1.4,3.8-2.2c0,0,0,0,0,0c0-0.6,0.3-1.3,1.2-2.4
		c-1.3-0.8-2.5-2.9-4.8-4.3c-1-0.7-1.6-1.7-3-2c-1.1-0.3-2.1-1.3-3.4-1.4c-1.8-0.1-3.2-1.3-3.2-2.1c0-1.3-0.6-1.9-1.5-2
		c-1.6-0.2-1.6-2.8-2.8-2c-1.3,0.9-3.7-2.1-5.5-2.4c-1.1-0.2-1.4-1.7-2.4-1.7c-1.3,0-2.5-0.9-3.4-1.4
		C158.4,330.7,157.7,330.3,157.1,329.9L157.1,329.9L157.1,329.9z M183,358.3c0,0.1,0,0.3-0.1,0.5C183,358.7,183.1,358.5,183,358.3z"
		/>
	<path id="path4518-1-08" inkscape:connector-curvature="0" class="st1" d="M187.6,352.9c-1.9,0.8-1.5,1.9-3.8,2.2
		c-2.5,0.3-1.7,1.8-0.9,3c0.2,0.2,0.3,0.9-2.2,2.5c-0.1,0.1-1.3,1.4-1.3,2.4c-0.1,1.9,0.5,2.9-2.4,5.3c-1.4,1.1-1.4,3-1.7,4.8
		c-0.4,2.6-0.5,4.9-0.3,6.4c2.6-0.1,3.3,1.4,5.4,0.2c1.3-0.8,2.9-1.2,4.5-1.3s3.4,0.1,5,0.7c1.5,0.6,2.6,1.9,3.8,2.6
		c0.5-1.1,1.2-2.1,2.3-3c4.6-5.3,8.4-10.9,12.9-15.3c-1.6-1.5-1.3-3.4-2.2-3.9c-1.7-1.5-1-2.6-2.1-3.5c0,0,0,0,0,0
		c-2.5,0.2-5.3-0.2-8.6-0.4C192.3,354.2,187.8,354.7,187.6,352.9C187.7,352.9,187.6,352.9,187.6,352.9L187.6,352.9z"/>
	<path id="bo-1-0-7" inkscape:connector-curvature="0" class="st17" d="M133.2,280.2c-0.2,0.3,1.6,2,1.3,3.5c-0.1,0.6-0.5,2.2,0.3,3
		c1.1,1.1,3.6,1.2,3.9,1.6c1,1.1,2.5,4.9,0,3.9c-2.7-1.1-2.4,3.9-2.9,6c-0.5,2.3-1.2,7.7,0.6,6.7c0.7-0.4,1-0.2,1.1,0.3l0.2-0.4
		l0.1-4.5l1.5,0.8l1.7,0.6l0.7-1.7l1.3,1.4l1.8,0.3l0.6-0.7l0.2-1.7l1,0.5l0.7,0.6l10.5-0.5c0.2-1.4,0.5-2.8,1-4
		c0-0.1,0-0.3,0.1-0.4l-7-0.3l-1.5-1.7l-1.1,1.7l-1.5,0.2l-0.5-9.8l-1.5-0.6l-0.5,1.4l-3-3.9c-0.6,0.3-1.8,0-3.4-1.4
		c-0.5-0.4-1.9,0.9-3,0.3C134.3,280.5,133.5,280.2,133.2,280.2C133.3,280.2,133.2,280.2,133.2,280.2z"/>
	<g id="ar-3" transform="translate(-545.39716,-581.35157)">
		<path id="path4518-1" inkscape:connector-curvature="0" sodipodi:nodetypes="sscccccccs" class="st16" d="M766.2,920.6
			c-1.5,0-4.5,0.6-4.3,1.8c0.7,3.1,0.8,8.3-5.5,11.5c-3.1,5-3.9-0.3-6.6,3.4c0,0,0,0,0,0c1.1,0.9,0.4,2,2.1,3.5
			c0.9,0.5,0.6,2.4,2.2,3.9c1.7-1.7,3.6-3.3,5.6-4.6c7.6-3.3,14.9-11.1,7.9-19.2C767.1,920.7,766.7,920.6,766.2,920.6L766.2,920.6z"
			/>
	</g>
	<path id="path2818-3-4" inkscape:connector-curvature="0" class="st16" d="M203.5,270.3c-8.9-0.2-4.7,7.5-9,5.3
		c-0.2-0.1-0.4-0.2-0.6-0.2c-0.1,7.1-5.2,13.8-3.1,19.6c2,7.2-3,17.9,10.7,16.1c9-8.5,5.2,20.4,17,13.2c0.5,1,0.7,2.1,0.7,3.3
		c1.2-0.6,2.4-1.2,2.2-2.2c-0.4-2.5,2-2.5,2-4.3c0-2.6,4-3.5,5.6-6.4c-0.5-0.4-0.3-0.9,0.6-1c2-0.1,5.4-2.9,6.9-7.3
		c1.1-3.4,2.7-5.1,4.7-8c1.2-1.8,4.8-1.3,4.4-3.2c-0.7-3.2,0.6-6,0.2-6.6c-2.4-3.1-7.5-1.7-10.2-3.7c-1-0.7-2.6-2.3-5.3-2.3
		c-1.6,0,2.6-2.9-1.4-3.1c-2.4-0.1-0.6-3.7-2.6-4c-2.7-0.5-0.8-5.6-3.7-4.2c-2.9,1.3-3.1,1.7-5,0.7c-1.9-0.9-2.7,2.1-5.9,1.4
		C208.7,272.7,206.3,270.3,203.5,270.3z"/>
	<path id="path2818-3-5" inkscape:connector-curvature="0" class="st16" d="M234.3,314.6c-0.1,0-0.2,0.1-0.3,0.1
		c-2.8,0.9-4.5,0.5-5.1,0c-1.5,2.9-5.5,3.8-5.5,6.3c0,1.8-2.4,1.8-2,4.3c-2,3.3-2,0.3-2.3,3.6c-0.4,3.3-2.1,6.8-2.5,9.4
		c-0.1,0.6-0.1,1.1,0.1,1.8c0,0.1,2.6-0.8,2.9-0.8c1.4-0.1,2.7,0,3.6,0.7c1.2,2.6,1.6,4.8,1.3,6.7c0.8-0.1,1.7-1.3,2.9-0.3
		c0.9,0.7,2.1,1.2,3.3,0.6c2-1,1.8,2.7,7.3,2.2c1.6-0.1,4.2,2,4.5-1.8c0.1-1.7,4.7,0,4.6-2.1c0-2.5,4.7-0.6,5.9,0.2
		c3.8,2.8,3.6-1.8,9.6-0.9c0-0.3-0.1-0.6-0.1-0.8c1.1-5-0.5-8,4.4-7.9c0.3-0.4,1.7-1.7,2.1-2.1c0,0,0,0,0,0
		c-0.5-0.6-2.1-2.3-3.4-1.4c-1,0.7-2.2,1.6-1.2-0.1c1.3-2.4-3.4,1.1-5.6-0.2c-0.9-0.5,0.4-1.7-1.8-2.7c-1.6-0.7-0.8-3.6-1.4-4.4
		c-1.3-1.6,0.8-5-3.2-6.6c-0.7-0.3-6.4,0.9-8.4-1.2c-1.6-1.6-1.9-0.8-4.4-1C237.3,316.2,235.9,314.4,234.3,314.6L234.3,314.6z"/>
	<path id="path2818-3" inkscape:connector-curvature="0" sodipodi:nodetypes="cccccscscccccccccc" class="st16" d="M253.5,373.6
		c-1-0.4-2.1-1.1-2.8-1.2c-1.1-0.1-0.1-2.3,1.3-3.7c2.2-2.2,1.7-4,0.7-3.6c-2.6,0.9-4.1,0.4-4.6,0.2c-2.7-1.6-4.5-4.9-6.9-6.6
		c-3.1-2.1-5.8-2.9-10.7-3.9c-2.1-0.4-8.1,0.1-9.6-0.4c-0.5-0.2-0.8-0.3-1.1-0.4c-4.8,3.9-11.8,6.7-14.3,11.3
		c-3.6,5.8-17.5,16.5-4.6,13.2c6.6,9.6,14.7,7.5,23.4,17.7c8.4,1.7-4.3,17.5,5.5,10.1c7.7-7.9,3.5-14.2,11.2-21.1
		c3.8-0.7-0.8-11.2,3.9-4.7c7.8-3-4.7,12.7-8.1,13.6c6-1,11.3-10.5,16.2-19.2L253.5,373.6z"/>
	<path id="path2818-3-2" inkscape:connector-curvature="0" class="st16" d="M248.4,344.2c-0.9,0-1.6,0.3-1.6,1.3
		c0,2-4.5,0.4-4.6,2.1c-0.3,3.8-2.9,1.7-4.5,1.8c-5.5,0.4-5.3-3.3-7.3-2.2c-1.2,0.6-2.4,0.1-3.3-0.6c-1.2-1-2,0.1-2.9,0.3
		c-0.4,2.9-2.2,5.2-4.6,7.1c0.4,0.1,0.7,0.3,1.2,0.4c1.5,0.5,7.5,0,9.6,0.4c4.9,1,7.6,1.8,10.7,3.9c2.5,1.7,4.2,5,6.9,6.6
		c0.5,0.3,2,0.7,4.6-0.2c1-0.3,1.5,1.4-0.7,3.6c-1.4,1.4-2.3,3.6-1.3,3.7c0.8,0.1,1.9,0.7,2.8,1.2c2.5-4.4,4.9-8.6,7.2-11
		c4-1.9,2.3-11.7,1.8-16.7l-0.1-1.1c-0.2,0-0.4-0.1-0.6-0.1c-5.4-0.5-5.3,3.6-9,1C252,345.2,249.9,344.2,248.4,344.2L248.4,344.2z"
		/>
	<path id="path5568" inkscape:connector-curvature="0" sodipodi:nodetypes="csssssssssc" class="st18" d="M216.4,340.4
		c0.2-0.7,2.4-1.4,4.3-1.3c1.7,0.1,3.2,0.9,3.2,2.9c0.1,2,0.9,3.6,0.5,5.8c-0.4,2.3-1.8,4.6-3.7,6c-3.3,2.5-9.9,5-12.8,8.4
		c-3.5,4.3-4.9,4.5-11.9,13c-0.8,1-0.2,2.2-0.6,3.4c-0.4,1-1.8,1.9-1.9,3c-1,8.6-2.9,10-3.1,13.6c-0.2,5.7-0.6,8.2-0.7,8.1"/>
	<path id="bo-1" inkscape:connector-curvature="0" sodipodi:nodetypes="ccscsssssccccccccccccccscccccccccccccc" class="st17" d="
		M164.2,235.5l-16.6,7.6c-3.1,1.4-4,7.8-1.6,11.2c2.6,3.6,8.6,4.4,3.8,4.4c0,0-5.8-0.3-9.4-0.2c-4,0.1,0.3,3-0.9,5
		c-1.4,2.2-0.7,4.7,1.4,5.3c1.9,0.6,5.9,1.5,0.2,4.2c-3.5,1.7,0.2,4.6,1.9,7.4c0.5,0.8,0.3,1.7-0.4,1.9l3,3.9l0.5-1.4l1.5,0.6
		l0.5,9.8l1.5-0.2l1.1-1.7l1.5,1.7l7,0.3c0,0.1-0.1,0.3-0.1,0.4l-0.1,0c0.6-4,4.4-7.7,4.4-7.7s7.8-2,10.9-2.4
		c5.5-1.7,13.3-0.7,15.6,5.3c0.2,2,1.1,2.7,3.1,1.3c1-0.7-1-3.4-2.2-4.3c1.8-5.1,5.6-11.2,2.3-16.8c-3.2-2.7-7.7-6.3-4.6-10.9
		c-3.5-2.6-9.8,1.2-13.2-2.1c-0.1-3.2-3.1-7-2.3-9.4c1.3-3.5,0-10.6-3.8-13.1C167.3,236.2,165.7,236,164.2,235.5L164.2,235.5z
		 M135.4,287c0.3,0.2,0.7,0.4,1.1,0.5C136.1,287.4,135.7,287.2,135.4,287z M136.5,287.5c0.6,0.2,1.3,0.4,1.7,0.5
		C137.7,287.9,137.1,287.8,136.5,287.5z"/>
	<path id="path5572" inkscape:connector-curvature="0" sodipodi:nodetypes="ccssssssssssc" class="st18" d="M190.4,293.7l3-0.8
		c0,0-0.3-2.2-1.8-4.1c-2.1-2.7,5.1-12.4,1.9-17.2c-1.3-2-4.2-3.1-5.6-5.4c-0.5-0.8-1.2-2.9-0.2-4c1.1-1.3-0.8-3.3-2.7-3.1
		c-7.1,0.8-8.1,0.5-9.5-0.7c-0.9-0.7-0.9-1.8-1.4-3.1c-0.4-1.2-1.3-2.6-1.3-4.2c0.3-5.9,2-7.5-1.2-12.1c-0.8-1.1-1.5-2.1-2.6-2.6
		c-2-0.9-4.7-1-7.6-2.2"/>
	<path id="path4518-9-9" inkscape:connector-curvature="0" sodipodi:nodetypes="ccccccscsccsssscccc" class="st8" d="M128.9,306.3
		c-3.8,2.9-3.9,5.4-7.5,8.7l-1,4.6c0.6,0.3,1.5,1,2.3,2.4c0.4,0.7,2.7,1.1,3.1-0.5c0.1-0.4,1.2-3.6,0.4-5c-0.2-0.3,0.7-0.6,1.3,0.5
		c0.3,0.5,0.4,2.7,0.5,2.8c1.2,2.8,3.1,4.5,4,5.6c1.3,1.5,2.4,1.7,3.5,1.4c1.6-0.4,3.1,0.1,3.3,0c2.9-1.4,3.1-2.6,3.2-6.9
		c0-0.7-1.5-1-2.9-0.8c-1.2,0.1-2.3-1.9-3.3-3.8c-0.6-1.1-1.8-1.8-1.3-2.8c0.7-1.5,1.1-2.9,1.1-2.9l-0.1-0.5
		C133.2,308.9,130.9,308.6,128.9,306.3L128.9,306.3z"/>
	
		<path id="path4518-9" inkscape:connector-curvature="0" sodipodi:nodetypes="ccccssssccscsccccccccsssscccsssccccccc" class="st16" d="
		M151.3,308.4c-4.1-0.3-7.8,1.9-7.6,7.3c-1.8-6.1-4.9-6.3-8.2-6.7l0.1,0.5c0,0-0.3,1.5-1.1,2.9c-0.5,1,0.7,1.7,1.3,2.8
		c1,1.8,2.2,3.9,3.3,3.8c1.4-0.1,2.9,0.1,2.9,0.8c-0.1,4.3-0.3,5.5-3.2,6.9c-0.2,0.1-1.7-0.4-3.3,0c-1.1,0.3-2.2,0.1-3.5-1.4
		c-0.9-1-2.7-2.7-4-5.6c-0.1-0.1-0.2-2.3-0.5-2.8c-0.6-1.1-1.5-0.8-1.3-0.5c0.8,1.4-0.3,4.5-0.4,5c-0.3,1.6-2.7,1.3-3.1,0.5
		c-0.8-1.4-1.7-2-2.3-2.4c0.1,2.2,0.3,4.7-0.6,6.7c-6,1.2-7.6,4.3-7.9,8c0.6-0.1,1.6-0.3,2,0.1c0.2,0.3-0.5,0.9-0.2,1
		c4.7,0.7,6.8-0.3,10.5,0.9c0.7,0.2,1.9,2.2-0.5,1.8c-1.1-0.2-1.9,1-1.4,2.9c0.4,1.4,2.2,3.7,3.2,2.5c0.5-0.6,1.3-1.2,1.4,0.1
		c0,0.4,2.7,1.3,2.7,0.2c0-1.2,0.7-1.6,0.9-1.5c2.2,0.6,1.3,2.1,6.1,2.2c2.2,0,3.8-5.5,5.6-4.1c1.2,0.9,0.8,1.1,2,0.1
		c0.6-0.6,2.5,0.6,2.5,0.6l1.1-0.5l9.4-10.5V330c0.6-5.6,1.7-11.3,2.5-16.9C157.8,310.3,154.4,308.6,151.3,308.4L151.3,308.4z"/>
	<path id="bo-1-0" inkscape:connector-curvature="0" sodipodi:nodetypes="cccccccccccccccccc" class="st17" d="M157.9,299.9
		l-10.5,0.5l-0.7-0.6l-1-0.5l-0.2,1.7l-0.6,0.7l-1.8-0.3l-1.3-1.4l-0.7,1.7l-1.7-0.6l-1.5-0.8l-0.1,4.5l-0.1,0.4
		c0.1,0.9-0.5,2.8-0.6,3.4c0,0.1-0.1,0.3-0.1,0.4c3.7,0.1,5.3,9.5,6.7,4.3c0.3-5.3,8.6-6,11.5-3.1
		C157.1,308.7,158.9,293.4,157.9,299.9L157.9,299.9z"/>
	<path id="path5570" inkscape:connector-curvature="0" sodipodi:nodetypes="csssssssscc" class="st18" d="M111,332.8
		c0.6-1.9,2.3-4,6.2-5.4c4.2-1.4,3.7-4.8,3.8-10.2c0.1-2.9,3.7-7,5.1-9.2c0.4-0.7,2.5-2.2,4-1.1c2.6,1.9,5.8,1.9,6.1,1.9
		c2.1-0.1,2.6,1,3.2,2.3c2.5,5.3,4.4,5.1,4.3,2.2c-0.1-2.6,2.7-4.1,4.3-4.8c3-1.3,7.8,2.1,7.8,2.1l0,0"/>
	<path id="path2818-6" inkscape:connector-curvature="0" class="st8" d="M311,302.1c-1.7,4.3-4,4.7-5.3,5c-1.7,0.5-4.1,2.8-6.9,1.7
		c-2.8-1.1-2.5,1.4-6.6,2.8c-1.3,0.4-2.6,0.6-3.8,0.7c0,0.1,0.1,0.3,0.2,0.4c0.3,1,1,1.1,2.7,1.3c0.4,0.1,2.1,0,2.5,0.6
		c0.6,1.3-2.7,2.3-3.1,2.4c-2.8,0.8-2.3,2.1-1.5,3.4c0.2,0.3,0.4,0.9,0.7,1.5c2.3-3.5,5.3-4.9,9.2-4.2c3.5,1.2,5.5-3.7,6.5-0.8
		c7.7,0.9,12.2-4.6,15.2-11.3c-2.4-1.1-3.4-1.6-5.8-1.1c-1.1,0.3-2.3,0.2-2.5-1.4C312.2,302.5,311.6,302.2,311,302.1z"/>
	
		<path id="path2818-6-7" inkscape:connector-curvature="0" sodipodi:nodetypes="cscssscccsssssscccccssssccsccccccsssssscsc" class="st16" d="
		M251.6,292c-1,0-1.8,0.1-1.9,0.3c-4.1,4.3-4.3,3.2-4.3,3.2c0,1.6-3.3,1.2-4.4,2.9c-1.9,2.9-3.5,4.5-4.7,8c-1.5,4.5-4.9,7.2-6.9,7.3
		c-0.9,0.1-1.2,0.5-0.7,0.9c1.7,1.1,3.7,0.6,5.2,0.2c0.1,0,0.2-0.1,0.3-0.1c1.7-0.3,3.1,1.6,5.2,1.8c2.5,0.3,2.8-0.6,4.4,1
		c2,2.1,7.7,0.9,8.4,1.2c4,1.6,1.9,5,3.2,6.6c0.6,0.8-0.2,3.6,1.4,4.4c2.1,1,0.9,2.2,1.8,2.7c2.1,1.2,6.9-2.2,5.6,0.2
		c-0.9,1.7,0.3,0.8,1.2,0.1c1.3-0.9,3,0.8,3.4,1.4c0,0,0,0,0,0c0,0.3,0,0.5,0.4,0.4c0.1-0.1,0.2-0.3,0.4-0.4c0,0-0.1-0.3-0.4-0.2
		c-0.2,0.1-0.1-0.3,0-0.3c0.5-0.2,1.3-0.4,1.6-0.8c4.5-4.6,10.3-9.1,16.2-8.3c1.2-0.8,2.1-1.7,2.8-2.4c-0.2-0.6-0.5-1.2-0.7-1.5
		c-0.8-1.2-1.3-2.6,1.5-3.4c0.4-0.1,3.8-1.1,3.1-2.4c-0.3-0.7-2.1-0.6-2.5-0.6c-1.6-0.2-2.4-0.3-2.7-1.3c0-0.1-0.1-0.2-0.2-0.4
		c-2.3,0.2-4.1,0.2-3.9,1c0,3.9-4.6,4.3-5.1,2.3c-0.3-1.2-2.1-4.5-1.5-6.2c1.7-4.6,1-4.5-1.6-4.4c-2.6,0.1-0.7-5.1-1.9-8.4
		c-1.3-3.4-1.9-4.1-5-2.1c-1.3,0.9-3.3-1.3-4.7-0.4c-2.6,1.7-5,0.7-4.9,0.3C260,292.7,254.6,291.9,251.6,292L251.6,292z"/>
	<path id="path2818-6-6" inkscape:connector-curvature="0" sodipodi:nodetypes="scsssssscccscccccs" class="st8" d="M323.5,280.1
		c-0.2,0-0.4,0.1-0.6,0.1c-2.9,0.5-1.1,2.3-2.9,1.7c-1.1-0.3-2.1,0.9-1.6,1.6c1.8,2.6,1.4,3.7,0.2,3c-1.4-0.7-1.2,1.3,0.4,2.4
		c0.9,0.6,0.7,2.7-2.2,6.2c-1,1.2-1,2.6-2.3,3c-2.2,0.6-2.5,2-3.3,4c0,0,0,0.1,0,0.1c0.5,0.1,1.1,0.4,1.2,1.1
		c0.2,1.5,1.4,1.6,2.5,1.4c2.3-0.6,3.4,0,5.8,1.1c1-2.3,1.9-4.8,2.7-7.2c3.5-4,5.6-8.8,7.1-14c-0.2-0.1-0.4-0.2-0.5-0.4
		c-1.8-1.7-3.1-3.9-5.7-4C323.9,280.1,323.7,280,323.5,280.1L323.5,280.1z"/>
	<path id="rect9031-6" inkscape:connector-curvature="0" sodipodi:nodetypes="csscssssssssscsccc" class="st1" d="M192.4,305.4
		c3-0.3,6.5,1.5,9.7,1c5.3-0.9,9.6,0.6,11.4,4.3c2,4.1,11.6,8.4,10.2,8.7c-0.2,0.5-0.4,0.5-0.6,0.9c-0.2,0.3-0.4,0.4-0.6,1.5
		c-0.1,0.3,0,1-0.7,1.5c-0.6,0.4-1.2,1.2-1.4,1.8c-0.4,1-0.7,1.5-1.1,1.8c-1,0.7-0.6-1.5-2-1.9c-0.9-0.2-2.2,0.1-3.1,0.8
		c-0.9,0.7-2,0.2-2.5-0.1c-1.6-0.8-2.6-6.3-3.9-10c-1.2-3.4-2.8-4.6-3-4.7c-0.9-0.6-2.3-1.2-3.6,0.1c-2.7,2.6-8.9-0.9-9-1.2
		C192.2,309.2,189.7,306.7,192.4,305.4L192.4,305.4z"/>
	<path id="py" inkscape:connector-curvature="0" sodipodi:nodetypes="cccccccccccccccccccccccccc" class="st19" d="M155.6,310.6
		c1.5-4.5,3-9.2,2.9-14.1c1.3-2.8,2.5-5.9,4.5-8.3c3.4-1.1,7.2-1.2,10.6-2.4c4.4-1.5,9.4-1,13.2,1.6c3.9,1.4,2.8,5.6,4,8.6
		c1.6,2.3,1.9,5.5,0.8,8.6c0.1,2.4-2.2,5.3,1.8,5.5c2.5,0.3,6.4,2.6,8.2,0.1c1.5-1.6,4,1.8,6,1.6c0.4,3.2,2,6.2,2.5,9.3
		c-0.7,3.6,2.8,6.1,5.7,3.5c3.5-1.3,4.8,3,2.6,5.1c-0.3,2.8-1,5.6-2,8.3c-0.2,3.3,1.6,6.7-0.1,9.8c-1.7,2-3.6,3.2-5.6,4.5
		c-0.9,2.2-2.3,3.5-4.4,2.1c-1.9,0.6-2.3,3.5-4,1.2c-3.2,0.3-6.3,0.1-9.4-1.2c-1.8-1.6-7.9,1.5-5.7-2.2c3.4-1.8,1.8-6.3,4.3-8.4
		c2.8-2.3,2.6-7.9-0.3-9c-3.6-1.2-6.9-2.8-10.1-5c-2.7-2.3-5.6-3.9-9.1-4.4c-4.3-0.1-4.9-4.7-8.6-5.9
		C160,317.3,159.2,312.9,155.6,310.6L155.6,310.6z"/>
</g>
<g>
	<defs>
		<rect id="rect4755" x="478.4" y="9.9" width="247.7" height="189"/>
	</defs>
	<clipPath id="rect4755_2_">
		<use xlink:href="#rect4755"  style="overflow:visible;"/>
	</clipPath>
	<g id="fr" transform="translate(90.052125,219.50262)" class="st20">
		<path id="path2182" inkscape:connector-curvature="0" class="st12" d="M566.9-212.1c-0.8,3.9-1.8,7.9-4.1,10.5
			c4.7,4.1,10.9,5.1,16.8,7.3c5.8,0.4,11.9-2.4,17.2,1.5c4.2,2.7,16.7,5.4,14.9-2.7c-0.1-7.9,11.5-7.8,16.6-7.8
			c3.2,1.4,4.1-0.8,5.4,2.4c1.2,0.5,2.4,0.9,3.7,1.3v-12.4H566.9z"/>
	</g>
	<path id="dz" inkscape:connector-curvature="0" class="st21" d="M715.6,92.4c-5.1,0-10.5,1.8-15,1.4c-9.2,4.4-22.6,0.3-29.5,9.8
		c-6.4,1.1-12.7,3.5-18.2,8.5c-8.8,1.3-1.3,2.4-0.8,7.7c2.3,6-1.1,15.8,4.8,21.5c6.4,9.3-7.1,6.1-14.1,6.2
		c-3.9,5.1-16.9,5.2-9.8,12.3c-4.7,4-14.8,7-19.6,13.4c-8.3,2.7-14.3,3.3-21.8,6.7c-9.7,3.9-11.4,12.2-10.7,21.4h146.4V94.3
		c-1,0.3-2,0.6-3.2,0.8C721.6,93,718.7,92.4,715.6,92.4L715.6,92.4z"/>
	<path id="path3446" inkscape:connector-curvature="0" class="st21" d="M584,32.3c-2.1,0.1-4.2,1.8-4.7,4c0.3,3.2,1.5,6.3,1.7,9.5
		c-0.1,3.3-1.4,6.5-2.1,9.7c-0.1,3.6-2.4,6.6-4.6,9.2c-0.2,2-2.7,4.3-0.9,6.1c1.4,1.8,2.9,0.4,3.8-0.9c2.7,0.8-0.4,2-1.2,2.9
		c-0.4,3.9,3.7-0.2,4.1,1.9c-1,3.4,0.4,7-0.4,10.4c-0.8,1.8-2,6,1.5,5c3.6-1.4,7.3,2.1,10.8,0.2c2.3-1.3,1.4-4.3,1.6-6.5
		c0-2.9,4.8-3.5,3.9-6.5c-3.1-1.6-2.7-5.9-0.1-7.8c1.2-2.9-1.5-5.5-3.4-7.4c-0.2-2.9,4.5-0.9,4.8-3.7c0.3-2.5,0.1-5,1.5-7.2
		c0.7-2.4-1.5-5.1,0.2-7.4c1.8-1.6,5.2-2.5,5-5.5c-1.5-2.4-3.9-5.1-7-4.7c-2.3,1.2-5,1.3-7.6,1.1c-1.9,0.5-5.1,1-4.9-2
		C585.5,32.4,584.8,32.2,584,32.3L584,32.3z M493.9,139.5c-0.5,0-1,0.6-0.5,1c0.8,0.7,1.7,1.2,2.7,1.4c1.2,0.3,2.3-0.6,1.2-1.7
		c-1-1-2,0.3-2.9-0.5C494.2,139.6,494.1,139.5,493.9,139.5z"/>
	<path id="path5984" inkscape:connector-curvature="0" class="st22" d="M589,13.6c-1.9,0.1-3.4,0.9-3.5,3c1,1.2-12.8,1-9.2,6.9
		l0.5,0.8c4.3-1.7-1.1,2.8,1.5,2.2c3.9-2.8-1.1,2.7,2.4,2.3c-4.1,2.8,2.4-0.1-0.2,2.1c-3.8,3.8,1.4,2.9,3.7,1.4
		c5.1-2,0.1,3.5,3.7,3.1c5.1,0.4,9.3-2.2,14.2-1.3c0.3,2.6,4.1,2.7,4,5.5c-5.1,2-7.7,6.8-5.8,12.3c-3.2,1.6,0.8,6.7-3.2,8.4
		c-8.9-0.7,2.7,5.1,0.6,9.3c-3.8,2.3-3.1,6,0.5,7.9c-1.7,2.4-8.4,8.1-3.2,11.3c3.8-1.6,6.1,1.5,8.6,3.9c3.9-0.6-1.1,1.6,1.8,3
		c0.3,5.7,9.2,9.9,11.3,3c4.7-1.7,9.2-5,14.5-4.1c6.3-0.1,12.3-0.2,18.2-1.4c1.1-6,7.2-8,12.5-9.4c0.7-1.5,0.8-8.9,6.1-9.6
		c7.4-2.8-2.2-7-0.7-11.7c1.2-5.6,5.4-9.6,9.8-12.8c0.5-5.1,7.6-6.6,12.8-7.8c3.8-2.9,12.2-3.3,12.7-9.2c1.4-1.8,1-5.1-2.6-4.2
		c-5.7,0.8-12.6,1.1-17.1-2.9c-4.6-4-9,2.2-14.4-0.8c-4.1-2.4-11.4-1.9-13.4-5.6c-4.6-2.2-10.2-0.9-15.2-2
		c-6.5-0.9-12.7-0.1-19.3-0.4c-7-1.3-14.1-2.2-21.2-1.4C596.9,15.1,592.2,13.4,589,13.6L589,13.6z M711,55.8
		c-0.6,0.1-1.1,0.3-1.6,0.7c0.7,1.1,4,2.1,5.3,1.9C714.5,56.7,712.6,55.6,711,55.8L711,55.8z M703.4,56.9c-2.2,0.7-4.5,1.4-6.4,2.6
		c-0.7,0.4-1.2,0.9-1.6,1.5c-0.2,0.4-0.7,1.1-0.1,1.3c0.8,0.1,1.4-0.5,2.1-0.5c0.7,0,0.8,0.7,1.1,1.1c0.4,0.7,1.2,0.8,1.9,0.9
		c0.7,0.1,1.3,0.5,2,0.5c0.7-0.1,1.2-0.7,1.7-1.2l0-0.1c0.3-0.8,0.9-1.4,1.3-2.1c0.3-0.4,0.6-1,0.3-1.5c-0.4-0.5-1.1-0.3-1.6-0.3
		c-0.6,0.1-1.3-0.1-1.6-0.7C702.1,57.9,702.7,57,703.4,56.9L703.4,56.9z M685.5,66.9c-0.4,0-0.7,0.1-1.1,0.3c-1.4,0.7-2.1,2.4,0,2.8
		c0.4-0.9,3.1-1.8,2.1-2.7C686.3,67,685.9,66.9,685.5,66.9z M684.8,71.2c-0.3,0-0.4,0.3-0.2,1c0.3-0.2,0.7-0.4,1.1-0.6
		C685.3,71.3,685,71.2,684.8,71.2z M531.2,182.3c-1.2,0-3.3,2.8-3.6,3.5l1.1,0.4c0.8-0.9,3.9-1.6,3.2-3.3
		C531.7,182.5,531.4,182.3,531.2,182.3z M486.6,186.2c-0.1,0-0.2,0-0.4,0c-1.9,0.4,0.2,3.1,0.4,4.1c0.3-0.2,0.6-0.4,0.9-0.6
		C488.1,188.8,488.3,186.2,486.6,186.2L486.6,186.2z M527.5,187.3c-0.1,0-0.2,0.1-0.4,0.2c-2,2-2.2,6.4-5.1,7.3
		c0.3,0.2,0.7,0.4,1,0.6c1.5-1.5,4-1.5,4.8-3.8C527.9,191.2,528.2,187.4,527.5,187.3L527.5,187.3z M504.5,189.2c-2.8,1.1-5,2-8,2.7
		c0.9,1.4,1.5,2.9,2.4,4.2C501.2,195.3,503.6,191.3,504.5,189.2L504.5,189.2z M492.9,193.7c-1,0.2-0.8,1.6,0.2,2.1
		c1.1-0.2,2-1.8,0.3-2.1C493.2,193.7,493,193.7,492.9,193.7L492.9,193.7z M510.1,194.2c-0.2,0-0.4,0.1-0.7,0.1
		c-2.5,0.5-1.8,4.4,0.7,4.7C512.2,198,513.1,194,510.1,194.2L510.1,194.2z M485.8,198c-1.2,0-1.9,1.3-0.5,2.1
		c0.5-0.6,0.9-1.3,1.1-2.1C486.2,198,486,198,485.8,198z"/>
	<path id="ma" inkscape:connector-curvature="0" class="st21" d="M534.8,199.8c2.3-5.4,9-3.3,13.3-5.7c5.3-1.9,8.6-6.7,13.1-9.8
		c4-3.7,7.6-8.2,9.8-13.2c2.3-4.1-4.6-5.3-1.7-9.3c-1.2-5.6,2.7-9.8,5.1-14.3c-0.3-6.3,5.8-10,9.9-13.7c6.3-3.1,14.3-4.6,17.9-11.3
		c3.3-5.1,4.6-11.2,6.9-16.8c3.8-2.4,6.6-1.3,8.1,2.9c3.3,4,8.8,3.9,13.5,3c3.1,1,8.3-0.8,9-1.4c-0.6,1.2,2.9,4,1,1.6
		c2.9,2,6.6,0.3,9.2,3.7c4.4,4.3,1.4,10.7,3.6,16.6c-1,4.9,3.4,8.5,5.4,11.6c-2,1.3-2,4.3-1.8,4.4c-5.4,0.2-11.1-2.3-16.4-0.1
		c-1.3,5.4-7.7,3.1-10.2,6.5c0.9,1.9,1,3.9,2.5,6.1c-4.9,2.3-10.1,4.4-14.5,7.3c-2.3,6.2-9.1,6.4-14.6,6.9c-1.8,4.8-8,0-10.8,4.5
		c-4.2,2.4-9.7,5.2-12.2,9.5c0.4,5.2,1.9,13.2-5.9,11C561.8,200.4,548.3,200,534.8,199.8"/>
</g>
<rect id="rect4755_1_" x="478.4" y="9.9" class="st23" width="247.7" height="189"/>
</svg>
